<?xml version="1.0" encoding="UTF-8"?>
<svg version="1.1" xmlns="http://www.w3.org/2000/svg" width="1920" height="1080">
<path d="M0 0 C5.8895869 0.04103518 11.77751205 -0.02136494 17.66681538 -0.08017309 C30.4498264 -0.20354296 43.23047874 -0.20123002 56.01382324 -0.14452009 C67.20096244 -0.09509655 78.38722052 -0.08588305 89.57442963 -0.11656308 C90.31735884 -0.1185338 91.06028804 -0.12050452 91.82573026 -0.12253497 C94.84176392 -0.13054836 97.85779717 -0.13869558 100.87382984 -0.1470772 C129.15067596 -0.22475041 157.42599885 -0.17264419 185.70266868 -0.06341721 C210.80667563 0.03271007 235.90793762 0.0092143 261.01180565 -0.11378217 C289.23628199 -0.251697 317.45919525 -0.31122762 345.68399066 -0.24761045 C348.6947417 -0.24104717 351.70549312 -0.23469292 354.71624482 -0.22844052 C355.45753135 -0.22683567 356.19881788 -0.22523081 356.96256764 -0.22357732 C368.14017999 -0.20080247 379.31656164 -0.23793478 390.49396622 -0.30469632 C403.20924768 -0.38036203 415.92126035 -0.37035917 428.63624506 -0.2480626 C435.12297694 -0.18901858 441.60375738 -0.16813826 448.09035408 -0.25175214 C487.20295692 -0.71729193 487.20295692 -0.71729193 494.62641561 5.29143929 C499.72864869 10.86603842 502.37461553 16.91073571 504.38430333 24.12886477 C505.50327603 27.88119548 507.22432591 30.73797478 509.33333886 34.0224483 C510.43941819 35.94136732 511.54490238 37.86062952 512.64974511 39.7802608 C513.90884312 41.96516618 515.16795821 44.15006172 516.42708886 46.3349483 C517.05212304 47.42001666 517.67715722 48.50508502 518.32113183 49.62303424 C521.44904659 55.05186022 524.58082959 60.47845361 527.71224511 65.9052608 C528.9622639 68.07191663 530.21226389 70.2385833 531.46224511 72.4052608 C532.08099511 73.4777608 532.69974511 74.5502608 533.33724511 75.6552608 C643.96224511 267.40526081 643.96224511 267.40526081 645.83748925 270.65574908 C647.08660029 272.82083151 648.3357864 274.98587062 649.58504784 277.15086627 C652.7242682 282.59141786 655.86215073 288.03273296 658.99740136 293.4755733 C665.01971839 303.9273228 671.05893848 314.36825628 677.14974511 324.7802608 C682.57145688 334.05025857 687.91429426 343.36357832 693.23147118 352.69371295 C698.4326964 361.8180892 703.69252388 370.90658854 708.99569237 379.97215533 C715.14991252 390.49610705 721.23594507 401.05906218 727.32113183 411.62303424 C729.82650604 415.97137544 732.33415407 420.3184004 734.84334862 424.66453815 C736.0817716 426.8120008 737.31796589 428.96075038 738.55184472 431.11082721 C741.4734666 436.19597011 744.4156004 441.26550828 747.43551171 446.29283404 C748.86101761 448.66889023 750.27426347 451.05212704 751.68661034 453.43602252 C752.68912817 455.11651064 753.70928787 456.78643435 754.72982323 458.45604205 C755.33245995 459.47569049 755.93509667 460.49533893 756.55599511 461.5458858 C757.0941787 462.43823932 757.63236229 463.33059283 758.18685448 464.24998736 C759.49608978 467.64028333 759.19071588 469.42826574 758.21224511 472.9052608 C756.9598037 475.56053424 756.9598037 475.56053424 755.36068261 478.2646358 C754.4663955 479.79410846 754.4663955 479.79410846 753.55404198 481.35447955 C752.90499901 482.44373736 752.25595604 483.53299518 751.58724511 484.6552608 C750.90722333 485.81223432 750.22820464 486.96979793 749.55013573 488.12791705 C748.14157187 490.53191228 746.7287387 492.93331853 745.31283104 495.33299518 C742.07207533 500.8336096 738.89558188 506.37129489 735.71224511 511.9052608 C734.46254619 514.07210114 733.21254521 516.2387673 731.96224511 518.4052608 C731.34349511 519.4777608 730.72474511 520.5502608 730.08724511 521.6552608 C727.27474511 526.5302608 727.27474511 526.5302608 724.46224511 531.4052608 C723.84341454 532.47792193 723.22458397 533.55058307 722.58700097 534.65574908 C721.33788993 536.82083151 720.08870381 538.98587062 718.83944237 541.15086627 C715.70022201 546.59141786 712.56233948 552.03273296 709.42708886 557.4755733 C703.40477182 567.9273228 697.36555173 578.36825628 691.27474511 588.7802608 C686.19949387 597.45788321 681.18965744 606.17131648 676.21224511 614.9052608 C670.67222781 624.62641697 665.07849702 634.31420738 659.42879784 643.97215533 C653.27457769 654.49610705 647.18854515 665.05906218 641.10335839 675.62303424 C637.97544362 681.05186022 634.84366063 686.47845361 631.71224511 691.9052608 C630.46222632 694.07191663 629.21222632 696.2385833 627.96224511 698.4052608 C595.46224511 754.73859413 562.96224511 811.07192747 530.46224511 867.4052608 C529.84333397 868.47808307 529.22442284 869.55090533 528.58675683 870.65623736 C527.33853476 872.81973556 526.09016271 874.98314724 524.84163964 877.14647174 C521.68819255 882.61091097 518.53748415 888.07689726 515.39193261 893.5458858 C514.7544912 894.65319049 514.11704979 895.76049518 513.46029198 896.90135455 C512.28088731 898.95024734 511.1023743 900.99965391 509.92513573 903.04979205 C508.78049465 905.03736535 507.58398171 906.99579382 506.3425256 908.92437816 C504.52896033 911.97489864 503.64373982 914.86460572 502.75590718 918.29253078 C500.47426514 925.38275233 497.5411456 930.73220733 491.21224511 934.9052608 C476.86539322 939.8822816 459.34943015 937.96869964 444.42449021 937.8105216 C438.53490331 937.76948642 432.64697817 937.83188655 426.75767483 937.89069469 C413.97466382 938.01406456 401.19401147 938.01175162 388.41066697 937.95504169 C377.22352777 937.90561815 366.03726969 937.89640465 354.85006058 937.92708468 C353.73566677 937.93004077 353.73566677 937.93004077 352.59875996 937.93305657 C349.58272629 937.94106996 346.56669304 937.94921718 343.55066037 937.9575988 C315.27381425 938.03527201 286.99849137 937.9831658 258.72182153 937.87393881 C233.61781458 937.77781154 208.51655259 937.8013073 183.41268456 937.92430377 C155.18820823 938.0622186 126.96529496 938.12174922 98.74049956 938.05813205 C95.72974852 938.05156877 92.7189971 938.04521453 89.7082454 938.03896213 C88.96695886 938.03735727 88.22567233 938.03575241 87.46192257 938.03409893 C76.28431022 938.01132407 65.10792857 938.04845638 53.93052399 938.11521792 C41.21524253 938.19088363 28.50322986 938.18088077 15.78824515 938.0585842 C9.30151327 937.99954018 2.82073283 937.97865986 -3.66586387 938.06227374 C-42.77846671 938.52781353 -42.77846671 938.52781353 -50.2019254 932.51908231 C-55.30415847 926.94448319 -57.95012531 920.89978589 -59.95981312 913.68165684 C-61.07878581 909.92932612 -62.7998357 907.07254682 -64.90884864 903.7880733 C-66.01492797 901.86915428 -67.12041217 899.94989208 -68.22525489 898.0302608 C-69.48435291 895.84535542 -70.743468 893.66045988 -72.00259864 891.4755733 C-72.62763282 890.39050494 -73.252667 889.30543658 -73.89664161 888.18748736 C-77.02455638 882.75866138 -80.15633937 877.33206799 -83.28775489 871.9052608 C-84.53777368 869.73860497 -85.78777368 867.5719383 -87.03775489 865.4052608 C-87.65650489 864.3327608 -88.27525489 863.2602608 -88.91275489 862.1552608 C-199.53775489 670.40526081 -199.53775489 670.40526081 -201.41299903 667.15477252 C-202.66211007 664.98969009 -203.91129619 662.82465098 -205.16055763 660.65965533 C-208.29977799 655.21910374 -211.43766052 649.77778864 -214.57291114 644.3349483 C-220.59522818 633.88319881 -226.63444827 623.44226532 -232.72525489 613.0302608 C-238.14696667 603.76026303 -243.48980405 594.44694328 -248.80698097 585.11680865 C-254.00820618 575.9924324 -259.26803367 566.90393306 -264.57120216 557.83836627 C-270.72542231 547.31441455 -276.81145485 536.75145943 -282.89664161 526.18748736 C-285.40201583 521.83914617 -287.90966385 517.4921212 -290.41885841 513.14598346 C-291.65728139 510.9985208 -292.89347568 508.84977123 -294.1273545 506.6996944 C-297.04897638 501.61455149 -299.99111019 496.54501332 -303.01102149 491.51768756 C-304.4365274 489.14163138 -305.84977325 486.75839456 -307.26212013 484.37449908 C-308.26463796 482.69401097 -309.28479766 481.02408726 -310.30533302 479.35447955 C-310.90796974 478.33483111 -311.51060646 477.31518268 -312.13150489 476.2646358 C-312.66968849 475.37228229 -313.20787208 474.47992877 -313.76236427 473.56053424 C-315.07159956 470.17023827 -314.76622567 468.38225586 -313.78775489 464.9052608 C-312.53531349 462.24998736 -312.53531349 462.24998736 -310.93619239 459.5458858 C-310.04190528 458.01641315 -310.04190528 458.01641315 -309.12955177 456.45604205 C-308.4805088 455.36678424 -307.83146583 454.27752643 -307.16275489 453.1552608 C-306.48273311 451.99828729 -305.80371443 450.84072367 -305.12564552 449.68260455 C-303.71708165 447.27860932 -302.30424848 444.87720307 -300.88834083 442.47752643 C-297.64758511 436.976912 -294.47109166 431.43922671 -291.28775489 425.9052608 C-290.03805597 423.73842046 -288.788055 421.5717543 -287.53775489 419.4052608 C-286.60962989 417.7965108 -286.60962989 417.7965108 -285.66275489 416.1552608 C-283.78775489 412.9052608 -281.91275489 409.6552608 -280.03775489 406.4052608 C-279.41892433 405.33259967 -278.80009376 404.25993854 -278.16251075 403.15477252 C-276.91339971 400.98969009 -275.6642136 398.82465098 -274.41495216 396.65965533 C-271.2757318 391.21910374 -268.13784927 385.77778864 -265.00259864 380.3349483 C-258.98028161 369.88319881 -252.94106152 359.44226532 -246.85025489 349.0302608 C-241.77500366 340.35263839 -236.76516723 331.63920512 -231.78775489 322.9052608 C-226.2477376 313.18410463 -220.65400681 303.49631422 -215.00430763 293.83836627 C-208.85008748 283.31441455 -202.76405493 272.75145943 -196.67886817 262.18748736 C-193.55095341 256.75866138 -190.41917041 251.33206799 -187.28775489 245.9052608 C-186.0377361 243.73860497 -184.78773611 241.5719383 -183.53775489 239.4052608 C-151.03775489 183.07192747 -118.53775489 126.73859413 -86.03775489 70.4052608 C-85.41884376 69.33243854 -84.79993263 68.25961627 -84.16226661 67.15428424 C-82.91404455 64.99078604 -81.6656725 62.82737437 -80.41714942 60.66404986 C-77.26370233 55.19961063 -74.11299394 49.73362435 -70.96744239 44.2646358 C-70.33000099 43.15733111 -69.69255958 42.05002643 -69.03580177 40.90916705 C-67.8563971 38.86027426 -66.67788409 36.81086769 -65.50064552 34.76072955 C-64.35600444 32.77315626 -63.1594915 30.81472778 -61.91803539 28.88614345 C-60.10447012 25.83562296 -59.21924961 22.94591588 -58.33141696 19.51799083 C-50.21588109 -5.70110424 -21.58035641 -0.22871371 0 0 Z " fill="#1EA5DE" transform="translate(737.7877548933029,71.09473919868469)"/>
<path d="M0 0 C5.8895869 0.04103518 11.77751205 -0.02136494 17.66681538 -0.08017309 C30.4498264 -0.20354296 43.23047874 -0.20123002 56.01382324 -0.14452009 C67.20096244 -0.09509655 78.38722052 -0.08588305 89.57442963 -0.11656308 C90.31735884 -0.1185338 91.06028804 -0.12050452 91.82573026 -0.12253497 C94.84176392 -0.13054836 97.85779717 -0.13869558 100.87382984 -0.1470772 C129.15067596 -0.22475041 157.42599885 -0.17264419 185.70266868 -0.06341721 C210.80667563 0.03271007 235.90793762 0.0092143 261.01180565 -0.11378217 C289.23628199 -0.251697 317.45919525 -0.31122762 345.68399066 -0.24761045 C348.6947417 -0.24104717 351.70549312 -0.23469292 354.71624482 -0.22844052 C355.45753135 -0.22683567 356.19881788 -0.22523081 356.96256764 -0.22357732 C368.14017999 -0.20080247 379.31656164 -0.23793478 390.49396622 -0.30469632 C403.20924768 -0.38036203 415.92126035 -0.37035917 428.63624506 -0.2480626 C435.12297694 -0.18901858 441.60375738 -0.16813826 448.09035408 -0.25175214 C487.20295692 -0.71729193 487.20295692 -0.71729193 494.62641561 5.29143929 C499.72864869 10.86603842 502.37461553 16.91073571 504.38430333 24.12886477 C505.50327603 27.88119548 507.22432591 30.73797478 509.33333886 34.0224483 C510.43941819 35.94136732 511.54490238 37.86062952 512.64974511 39.7802608 C513.90884312 41.96516618 515.16795821 44.15006172 516.42708886 46.3349483 C517.05212304 47.42001666 517.67715722 48.50508502 518.32113183 49.62303424 C521.44904659 55.05186022 524.58082959 60.47845361 527.71224511 65.9052608 C528.9622639 68.07191663 530.21226389 70.2385833 531.46224511 72.4052608 C532.08099511 73.4777608 532.69974511 74.5502608 533.33724511 75.6552608 C643.96224511 267.40526081 643.96224511 267.40526081 645.83748925 270.65574908 C647.08660029 272.82083151 648.3357864 274.98587062 649.58504784 277.15086627 C652.7242682 282.59141786 655.86215073 288.03273296 658.99740136 293.4755733 C665.01971839 303.9273228 671.05893848 314.36825628 677.14974511 324.7802608 C682.57145688 334.05025857 687.91429426 343.36357832 693.23147118 352.69371295 C698.4326964 361.8180892 703.69252388 370.90658854 708.99569237 379.97215533 C715.14991252 390.49610705 721.23594507 401.05906218 727.32113183 411.62303424 C729.82650604 415.97137544 732.33415407 420.3184004 734.84334862 424.66453815 C736.0817716 426.8120008 737.31796589 428.96075038 738.55184472 431.11082721 C741.4734666 436.19597011 744.4156004 441.26550828 747.43551171 446.29283404 C748.86101761 448.66889023 750.27426347 451.05212704 751.68661034 453.43602252 C752.68912817 455.11651064 753.70928787 456.78643435 754.72982323 458.45604205 C755.33245995 459.47569049 755.93509667 460.49533893 756.55599511 461.5458858 C757.0941787 462.43823932 757.63236229 463.33059283 758.18685448 464.24998736 C759.49608978 467.64028333 759.19071588 469.42826574 758.21224511 472.9052608 C756.9598037 475.56053424 756.9598037 475.56053424 755.36068261 478.2646358 C754.4663955 479.79410846 754.4663955 479.79410846 753.55404198 481.35447955 C752.90499901 482.44373736 752.25595604 483.53299518 751.58724511 484.6552608 C750.90722333 485.81223432 750.22820464 486.96979793 749.55013573 488.12791705 C748.14157187 490.53191228 746.7287387 492.93331853 745.31283104 495.33299518 C742.07207533 500.8336096 738.89558188 506.37129489 735.71224511 511.9052608 C734.46254619 514.07210114 733.21254521 516.2387673 731.96224511 518.4052608 C731.34349511 519.4777608 730.72474511 520.5502608 730.08724511 521.6552608 C727.27474511 526.5302608 727.27474511 526.5302608 724.46224511 531.4052608 C723.84341454 532.47792193 723.22458397 533.55058307 722.58700097 534.65574908 C721.33788993 536.82083151 720.08870381 538.98587062 718.83944237 541.15086627 C715.70022201 546.59141786 712.56233948 552.03273296 709.42708886 557.4755733 C703.40477182 567.9273228 697.36555173 578.36825628 691.27474511 588.7802608 C686.19949387 597.45788321 681.18965744 606.17131648 676.21224511 614.9052608 C670.67222781 624.62641697 665.07849702 634.31420738 659.42879784 643.97215533 C653.27457769 654.49610705 647.18854515 665.05906218 641.10335839 675.62303424 C637.97544362 681.05186022 634.84366063 686.47845361 631.71224511 691.9052608 C630.46222632 694.07191663 629.21222632 696.2385833 627.96224511 698.4052608 C595.46224511 754.73859413 562.96224511 811.07192747 530.46224511 867.4052608 C529.84333397 868.47808307 529.22442284 869.55090533 528.58675683 870.65623736 C527.33853476 872.81973556 526.09016271 874.98314724 524.84163964 877.14647174 C521.68819255 882.61091097 518.53748415 888.07689726 515.39193261 893.5458858 C514.7544912 894.65319049 514.11704979 895.76049518 513.46029198 896.90135455 C512.28088731 898.95024734 511.1023743 900.99965391 509.92513573 903.04979205 C508.78049465 905.03736535 507.58398171 906.99579382 506.3425256 908.92437816 C504.52896033 911.97489864 503.64373982 914.86460572 502.75590718 918.29253078 C500.47426514 925.38275233 497.5411456 930.73220733 491.21224511 934.9052608 C476.86539322 939.8822816 459.34943015 937.96869964 444.42449021 937.8105216 C438.53490331 937.76948642 432.64697817 937.83188655 426.75767483 937.89069469 C413.97466382 938.01406456 401.19401147 938.01175162 388.41066697 937.95504169 C377.22352777 937.90561815 366.03726969 937.89640465 354.85006058 937.92708468 C353.73566677 937.93004077 353.73566677 937.93004077 352.59875996 937.93305657 C349.58272629 937.94106996 346.56669304 937.94921718 343.55066037 937.9575988 C315.27381425 938.03527201 286.99849137 937.9831658 258.72182153 937.87393881 C233.61781458 937.77781154 208.51655259 937.8013073 183.41268456 937.92430377 C155.18820823 938.0622186 126.96529496 938.12174922 98.74049956 938.05813205 C95.72974852 938.05156877 92.7189971 938.04521453 89.7082454 938.03896213 C88.96695886 938.03735727 88.22567233 938.03575241 87.46192257 938.03409893 C76.28431022 938.01132407 65.10792857 938.04845638 53.93052399 938.11521792 C41.21524253 938.19088363 28.50322986 938.18088077 15.78824515 938.0585842 C9.30151327 937.99954018 2.82073283 937.97865986 -3.66586387 938.06227374 C-42.77846671 938.52781353 -42.77846671 938.52781353 -50.2019254 932.51908231 C-55.30415847 926.94448319 -57.95012531 920.89978589 -59.95981312 913.68165684 C-61.07878581 909.92932612 -62.7998357 907.07254682 -64.90884864 903.7880733 C-66.01492797 901.86915428 -67.12041217 899.94989208 -68.22525489 898.0302608 C-69.48435291 895.84535542 -70.743468 893.66045988 -72.00259864 891.4755733 C-72.62763282 890.39050494 -73.252667 889.30543658 -73.89664161 888.18748736 C-77.02455638 882.75866138 -80.15633937 877.33206799 -83.28775489 871.9052608 C-84.53777368 869.73860497 -85.78777368 867.5719383 -87.03775489 865.4052608 C-87.65650489 864.3327608 -88.27525489 863.2602608 -88.91275489 862.1552608 C-199.53775489 670.40526081 -199.53775489 670.40526081 -201.41299903 667.15477252 C-202.66211007 664.98969009 -203.91129619 662.82465098 -205.16055763 660.65965533 C-208.29977799 655.21910374 -211.43766052 649.77778864 -214.57291114 644.3349483 C-220.59522818 633.88319881 -226.63444827 623.44226532 -232.72525489 613.0302608 C-238.14696667 603.76026303 -243.48980405 594.44694328 -248.80698097 585.11680865 C-254.00820618 575.9924324 -259.26803367 566.90393306 -264.57120216 557.83836627 C-270.72542231 547.31441455 -276.81145485 536.75145943 -282.89664161 526.18748736 C-285.40201583 521.83914617 -287.90966385 517.4921212 -290.41885841 513.14598346 C-291.65728139 510.9985208 -292.89347568 508.84977123 -294.1273545 506.6996944 C-297.04897638 501.61455149 -299.99111019 496.54501332 -303.01102149 491.51768756 C-304.4365274 489.14163138 -305.84977325 486.75839456 -307.26212013 484.37449908 C-308.26463796 482.69401097 -309.28479766 481.02408726 -310.30533302 479.35447955 C-310.90796974 478.33483111 -311.51060646 477.31518268 -312.13150489 476.2646358 C-312.66968849 475.37228229 -313.20787208 474.47992877 -313.76236427 473.56053424 C-315.07159956 470.17023827 -314.76622567 468.38225586 -313.78775489 464.9052608 C-312.53531349 462.24998736 -312.53531349 462.24998736 -310.93619239 459.5458858 C-310.04190528 458.01641315 -310.04190528 458.01641315 -309.12955177 456.45604205 C-308.4805088 455.36678424 -307.83146583 454.27752643 -307.16275489 453.1552608 C-306.48273311 451.99828729 -305.80371443 450.84072367 -305.12564552 449.68260455 C-303.71708165 447.27860932 -302.30424848 444.87720307 -300.88834083 442.47752643 C-297.64758511 436.976912 -294.47109166 431.43922671 -291.28775489 425.9052608 C-290.03805597 423.73842046 -288.788055 421.5717543 -287.53775489 419.4052608 C-286.60962989 417.7965108 -286.60962989 417.7965108 -285.66275489 416.1552608 C-283.78775489 412.9052608 -281.91275489 409.6552608 -280.03775489 406.4052608 C-279.41892433 405.33259967 -278.80009376 404.25993854 -278.16251075 403.15477252 C-276.91339971 400.98969009 -275.6642136 398.82465098 -274.41495216 396.65965533 C-271.2757318 391.21910374 -268.13784927 385.77778864 -265.00259864 380.3349483 C-258.98028161 369.88319881 -252.94106152 359.44226532 -246.85025489 349.0302608 C-241.77500366 340.35263839 -236.76516723 331.63920512 -231.78775489 322.9052608 C-226.2477376 313.18410463 -220.65400681 303.49631422 -215.00430763 293.83836627 C-208.85008748 283.31441455 -202.76405493 272.75145943 -196.67886817 262.18748736 C-193.55095341 256.75866138 -190.41917041 251.33206799 -187.28775489 245.9052608 C-186.0377361 243.73860497 -184.78773611 241.5719383 -183.53775489 239.4052608 C-151.03775489 183.07192747 -118.53775489 126.73859413 -86.03775489 70.4052608 C-85.41884376 69.33243854 -84.79993263 68.25961627 -84.16226661 67.15428424 C-82.91404455 64.99078604 -81.6656725 62.82737437 -80.41714942 60.66404986 C-77.26370233 55.19961063 -74.11299394 49.73362435 -70.96744239 44.2646358 C-70.33000099 43.15733111 -69.69255958 42.05002643 -69.03580177 40.90916705 C-67.8563971 38.86027426 -66.67788409 36.81086769 -65.50064552 34.76072955 C-64.35600444 32.77315626 -63.1594915 30.81472778 -61.91803539 28.88614345 C-60.10447012 25.83562296 -59.21924961 22.94591588 -58.33141696 19.51799083 C-50.21588109 -5.70110424 -21.58035641 -0.22871371 0 0 Z M205.6270858 33.40709376 C200.59486863 33.91647592 195.63843919 34.03417693 190.58413231 34.00291705 C189.21171777 34.00079888 189.21171777 34.00079888 187.81157768 33.99863791 C184.77485582 33.99296499 181.73820366 33.98027237 178.70150292 33.9677608 C176.51274785 33.96260251 174.32399137 33.95801447 172.135234 33.9539516 C167.43669757 33.94491697 162.73817367 33.93362264 158.03964531 33.92109942 C150.61049362 33.90310316 143.18139325 33.90118126 135.75222313 33.90355182 C134.49681922 33.90392097 133.2414153 33.90429013 131.94796884 33.90467048 C126.77493731 33.90643405 121.60190599 33.90864405 116.42887461 33.91081691 C101.7495663 33.91607836 87.070659 33.90643668 72.39144433 33.85399127 C60.71563375 33.81256711 49.04028059 33.80273306 37.36442173 33.83010173 C31.18915116 33.84335975 25.01482986 33.84041652 18.83966362 33.79905963 C13.03775869 33.76052583 7.23738956 33.76374107 1.43547928 33.79918361 C-0.69382705 33.80473481 -2.82323742 33.79486448 -4.95238769 33.76849437 C-15.73551778 33.12155583 -15.73551778 33.12155583 -25.34376228 36.87575698 C-26.92882541 39.20207571 -27.888735 41.25045493 -28.78775489 43.9052608 C-29.39361427 44.90436481 -29.99947364 45.90346881 -30.62369239 46.93284869 C-31.13158302 47.82222125 -31.63947364 48.71159381 -32.16275489 49.62791705 C-32.74806983 50.64837115 -33.33338478 51.66882525 -33.93643653 52.72020221 C-34.85283912 54.32774371 -34.85283912 54.32774371 -35.78775489 55.9677608 C-36.78148446 57.70061284 -37.77522398 59.43345931 -38.76970375 61.16588092 C-39.44681509 62.34546444 -40.1236025 63.52523396 -40.80006874 64.70518756 C-44.12181705 70.49679438 -47.48189845 76.26567514 -50.85025489 82.0302608 C-51.42396827 83.01276813 -51.99768165 83.99527545 -52.58878028 85.00755572 C-54.8973863 88.96030171 -57.20735271 92.91225199 -59.51724708 96.86424518 C-61.25382325 99.83591585 -62.98976681 102.80795454 -64.72525489 105.7802608 C-65.58993385 107.26103106 -65.58993385 107.26103106 -66.47208107 108.77171588 C-70.72977169 116.07137472 -74.94965315 123.39230238 -79.16275489 130.7177608 C-84.95964749 140.79282793 -90.86048782 150.80238836 -96.80240333 160.79246783 C-102.03417974 169.60153812 -107.17371854 178.46094187 -112.28165138 187.34227252 C-118.16194253 197.56637416 -124.10284475 207.75443854 -130.05386817 217.93748736 C-132.9678633 222.92517037 -135.87758057 227.91534785 -138.78775489 232.9052608 C-139.95440132 234.90527261 -141.12106798 236.90527261 -142.28775489 238.9052608 C-142.86525489 239.8952608 -143.44275489 240.8852608 -144.03775489 241.9052608 C-149.28775489 250.9052608 -149.28775489 250.9052608 -151.03751075 253.90477252 C-152.20507217 255.90635291 -153.37255254 257.90798057 -154.53995216 259.90965533 C-157.44226905 264.88586472 -160.34595406 269.86126535 -163.25259864 274.8349483 C-169.25552548 285.11058638 -175.22963277 295.40164643 -181.16275489 305.7177608 C-186.95964749 315.79282793 -192.86048782 325.80238836 -198.80240333 335.79246783 C-204.03417974 344.60153812 -209.17371854 353.46094187 -214.28165138 362.34227252 C-220.16194253 372.56637416 -226.10284475 382.75443854 -232.05386817 392.93748736 C-234.38321419 396.92446711 -236.70975407 400.91308048 -239.03604591 404.90184283 C-240.20165616 406.90035675 -241.36750813 408.89872971 -242.5336045 410.89696002 C-245.47895386 415.94436565 -248.42126794 420.99350007 -251.35806739 426.0458858 C-252.24159889 427.56411944 -252.24159889 427.56411944 -253.1429795 429.11302447 C-254.31206222 431.12267267 -255.47957324 433.1332361 -256.64542091 435.14476275 C-259.48838388 440.03372098 -262.37618983 444.88417811 -265.36978614 449.68260455 C-265.93487892 450.59558307 -266.49997169 451.50856158 -267.08218849 452.44920611 C-268.14930627 454.16610824 -269.22843587 455.87562359 -270.3214463 457.57615924 C-273.05128723 461.82477368 -273.05128723 461.82477368 -273.75650489 466.69041705 C-272.75371418 468.98308775 -271.69244205 471.04122098 -270.35025489 473.1552608 C-267.54006202 477.68502408 -264.79780195 482.24539923 -262.10025489 486.8427608 C-261.67268898 487.57003375 -261.24512306 488.2973067 -260.8046006 489.04661822 C-257.23120935 495.13171714 -253.69402625 501.2374458 -250.16251075 507.34691119 C-240.90565089 523.35579593 -231.55500195 539.31008085 -222.19916236 555.26124835 C-215.61183597 566.49264263 -209.04555433 577.73619565 -202.48941505 588.98582721 C-200.17513616 592.95629306 -197.85941598 596.92591738 -195.54361427 600.89549518 C-193.79540599 603.89214585 -192.04743931 606.88893736 -190.29947364 609.88572955 C-187.9279282 613.95133063 -185.55542745 618.0163723 -183.18228614 622.08104205 C-175.56237162 635.13414295 -167.97034919 648.20293155 -160.40982521 661.29051471 C-155.64774696 669.53334224 -150.87785988 677.77045542 -146.03775489 685.9677608 C-141.79912392 693.14683475 -137.63333601 700.36678543 -133.47525489 707.5927608 C-128.25011455 716.66972961 -122.97124592 725.71183915 -117.63004005 734.72093463 C-111.88829119 744.40936927 -106.22086797 754.14074809 -100.55386817 763.87303424 C-97.63447465 768.88531895 -94.71089283 773.89515923 -91.78775489 778.9052608 C-90.6249844 780.89874451 -89.46222399 782.8922341 -88.29947364 784.88572955 C-85.9279282 788.95133063 -83.55542745 793.0163723 -81.18228614 797.08104205 C-73.56237162 810.13414295 -65.97034919 823.20293155 -58.40982521 836.29051471 C-53.2345568 845.24854579 -48.04155121 854.19493783 -42.78775489 863.1071651 C-38.91724668 869.67615856 -35.06915282 876.25816609 -31.22525489 882.8427608 C-30.604813 883.90454547 -29.9843711 884.96633014 -29.34512794 886.0602901 C-28.76803077 887.04940387 -28.1909336 888.03851764 -27.59634864 889.05760455 C-26.8198899 890.3877962 -26.8198899 890.3877962 -26.02774513 891.74486041 C-25.24370259 893.11087584 -24.49212991 894.49651076 -23.78775489 895.9052608 C24.05366051 896.12778391 71.89511426 896.33475393 119.73690331 896.45572162 C120.44489684 896.45751636 121.15289036 896.4593111 121.88233824 896.46116023 C137.26868723 896.5000674 152.65504172 896.53607985 168.04140443 896.56911008 C175.58679655 896.58532556 183.13218718 896.60218074 190.67757714 896.61937213 C191.42843694 896.621072 192.17929674 896.62277186 192.95290987 896.62452324 C217.29361169 896.67992791 241.63392137 896.77757962 265.97438559 896.89712467 C290.9859588 897.01974276 315.99731498 897.09977003 341.00918368 897.12615567 C344.54134892 897.12990172 348.07351341 897.134135 351.60567772 897.13866496 C352.30086303 897.13954146 352.99604834 897.14041796 353.71229987 897.14132102 C364.90622563 897.15668781 376.09948059 897.21699283 387.29313271 897.29407724 C398.54474733 897.37060274 409.79570935 897.39879457 421.04763907 897.38077871 C427.14545511 897.37243367 433.24130145 897.38541382 439.33876908 897.45493197 C444.91987857 897.51809963 450.49769068 897.52146517 456.07895052 897.47694644 C458.0993342 897.47144328 460.11992178 897.48802978 462.13990271 897.52874217 C471.9727399 898.12909725 471.9727399 898.12909725 480.77294481 894.64924191 C483.79639257 891.14326657 485.45751419 887.17039763 487.21224511 882.9052608 C488.33536294 880.93776646 489.48335512 878.98398804 490.66927636 877.0536983 C491.78946463 875.1302074 492.90792403 873.20570872 494.02474511 871.2802608 C494.62585106 870.24683551 495.22695702 869.21341022 495.84627831 868.148669 C497.63694027 865.06869246 499.42510852 861.98728402 501.21224511 858.9052608 C501.71723534 858.03466022 502.22222558 857.16405963 502.74251854 856.26707721 C505.90352115 850.81569627 509.05882442 845.36103027 512.21224511 839.9052608 C519.91418272 826.58004978 527.65377122 813.27723216 535.41390526 799.98582721 C537.76624115 795.95626241 540.11724267 791.92592008 542.46810448 787.89549518 C544.21989517 784.89214518 545.97193003 781.88893771 547.72396386 778.88572955 C550.01908447 774.95132848 552.31329982 771.01640171 554.60677636 767.08104205 C560.9605857 756.18047007 567.32887525 745.28853866 573.71224511 734.4052608 C585.39918761 714.47879239 597.0346946 694.5230263 608.59017479 674.5200069 C613.37544794 666.2370306 618.1677011 657.95890817 623.02474511 649.7177608 C631.96005575 634.55638301 640.81320324 619.34800854 649.58724511 604.0927608 C655.3854659 594.01542139 661.28699331 584.00319614 667.23128808 574.01146197 C672.41812375 565.27968025 677.50342996 556.49282786 682.56112206 547.68577838 C687.10844429 539.78188589 691.73668995 531.92861494 696.39974511 524.0927608 C702.16128248 514.40689861 707.81982108 504.67040112 713.38412011 494.87010455 C716.76030384 488.92646729 720.19791332 483.01855652 723.64901268 477.11815143 C724.48160657 475.68786673 725.30092156 474.24973454 726.10409081 472.80272174 C727.21224511 470.9052608 727.21224511 470.9052608 729.38412011 468.01854205 C730.41011142 464.16139546 729.75388885 463.37009851 727.88021386 459.9443233 C726.74433393 458.12425839 725.58303054 456.31986832 724.39974511 454.5302608 C723.8138662 453.60342486 723.22798729 452.67658893 722.62435448 451.72166705 C721.17452845 449.43494957 719.70392669 447.16480821 718.21224511 444.9052608 C709.77993214 445.34038233 702.00489418 447.38943282 693.89974511 449.6552608 C691.2226046 450.39032213 688.54374652 451.11899636 685.86458886 451.84666705 C685.20548516 452.02627475 684.54638146 452.20588244 683.86730492 452.3909328 C678.25866374 453.91166592 672.62367075 455.28474468 666.96224511 456.5927608 C659.92195584 458.22478173 652.96730845 460.0493165 646.01790917 462.03099322 C639.39991541 463.89878683 632.72488522 465.47073035 626.02865136 467.0302608 C619.64603699 468.52984714 613.34202464 470.22625141 607.03841698 472.02586627 C600.28789009 473.93212642 593.47919926 475.55430852 586.64193261 477.11815143 C584.98778578 477.50057565 583.33742909 477.89980238 581.69149315 478.31614947 C579.21224511 478.9052608 579.21224511 478.9052608 576.58651268 479.30101275 C572.48900275 480.09793216 570.02612186 480.85432612 567.41683495 484.22362018 C565.71429868 487.36888494 564.2875822 490.54647531 562.89974511 493.8427608 C562.35201667 495.06806406 561.80066668 496.29175406 561.24593651 497.51390338 C560.09912225 500.05286259 558.9715589 502.59906158 557.85921776 505.15330768 C555.37275417 510.8477997 552.7181285 516.46398081 550.08724511 522.0927608 C549.007593 524.42729216 547.92817555 526.76193206 546.84896386 529.09666705 C542.59662399 538.27147914 538.24508406 547.39923989 533.89974511 556.5302608 C525.16874402 574.88273578 525.16874402 574.88273578 516.47753441 593.25407672 C515.81639226 594.65489761 515.15446523 596.05534842 514.49163353 597.45537066 C509.88155049 607.19476369 505.48485825 617.013197 501.21224511 626.9052608 C502.125989 627.14333453 502.125989 627.14333453 503.05819237 627.38621783 C509.48827654 629.12218751 513.53510046 632.25360468 518.21224511 636.9052608 C523.99104732 632.83195036 529.1646772 628.27053381 534.35677636 623.47947955 C537.07735019 621.02686922 539.86081187 618.70349159 542.71224511 616.4052608 C546.49684845 613.35177401 550.13432048 610.19857779 553.71224511 606.9052608 C558.18209631 602.79147172 562.80269404 598.93438783 567.52865136 595.12010455 C570.15933068 592.94893254 572.69166935 590.70284723 575.21224511 588.4052608 C578.60823192 585.30970884 582.07396041 582.35374873 585.64974511 579.4677608 C589.45312013 576.39189492 593.11307162 573.21772914 596.71224511 569.9052608 C611.2396223 556.56591876 611.2396223 556.56591876 617.21224511 553.9052608 C616.88224511 553.1215108 616.55224511 552.3377608 616.21224511 551.5302608 C614.50326823 545.33521964 614.16313408 539.46881753 616.89974511 533.5302608 C619.4318547 529.12350165 622.37566882 526.72151693 627.02474511 524.6552608 C633.73875901 523.07549282 638.46610276 523.37529358 644.45443261 526.69822955 C648.19086222 529.26391122 650.48160781 532.78678217 652.21224511 536.9052608 C653.13472464 543.70247841 652.95321889 549.67765023 648.73958886 555.2802608 C645.06710501 559.18755819 642.33341911 560.69870453 637.08333886 561.2099483 C628.39336225 561.38790004 628.39336225 561.38790004 624.13412011 559.6474483 C621.17381465 558.54278049 621.17381465 558.54278049 618.60677636 560.3271358 C617.32867089 561.47955768 617.32867089 561.47955768 616.02474511 562.6552608 C615.07212792 563.49572955 614.11951073 564.3361983 613.13802636 565.2021358 C612.17251854 566.09416705 611.20701073 566.9861983 610.21224511 567.9052608 C609.29829979 568.73541705 608.38435448 569.5655733 607.44271386 570.4208858 C605.61241481 572.08622228 603.78693113 573.75686555 601.96615136 575.43260455 C598.38017227 578.65235599 594.64523019 581.66431256 590.89583886 584.69041705 C588.26515954 586.86158907 585.73282086 589.10767437 583.21224511 591.4052608 C579.81625829 594.50081276 576.3505298 597.45677287 572.77474511 600.3427608 C568.00084211 604.20351217 563.47836083 608.27963155 558.96224511 612.4365108 C555.40040282 615.63407376 551.68658678 618.61914423 547.96224511 621.6240108 C544.18522996 624.75721654 540.60246276 628.0853908 536.99349511 631.40916705 C533.27916781 634.74267146 529.41952561 637.87588354 525.52474511 640.99510455 C521.62594233 644.21556833 519.98372331 645.5853546 519.33724511 650.7177608 C518.21100084 657.05057692 515.89385128 659.89405618 510.71224511 663.7802608 C504.09088653 665.90855463 496.98928988 666.22070306 490.64974511 663.2177608 C485.43547215 658.27088645 482.24236939 653.93503336 481.77474511 646.6552608 C481.90079599 641.25308023 484.04175329 637.19521023 487.21224511 632.9052608 C488.39620873 631.79598224 488.39620873 631.79598224 489.60409081 630.664294 C492.34734835 627.76234198 493.81771086 625.21604843 495.52474511 621.62010455 C495.95995476 620.71404971 495.95995476 620.71404971 496.40395653 619.78969073 C497.35045303 617.81214758 498.28145267 615.82773765 499.21224511 613.8427608 C499.880397 612.43800489 500.54935541 611.03363234 501.21908104 609.62962604 C505.88880068 599.81528224 510.46714597 589.95737674 515.02157128 580.08909869 C520.1784349 568.92661664 525.45795658 557.82350183 530.74291527 546.72120929 C537.2483214 533.05458578 543.71420179 519.37004723 550.13729393 505.66453815 C555.1576506 494.96470981 555.1576506 494.96470981 557.65365136 490.0927608 C559.35866823 487.19716739 559.35866823 487.19716739 559.21224511 484.9052608 C551.26550901 486.19953352 543.58812118 488.05393551 535.83724511 490.2177608 C527.65806345 492.46423786 519.47512842 494.6137126 511.21224511 496.5302608 C504.89751727 497.9982493 498.6363105 499.5713666 492.39974511 501.3427608 C485.80241597 503.21431776 479.18163444 504.94553767 472.52474511 506.5927608 C461.88564219 509.22643471 451.26534517 511.92875814 440.64974511 514.6552608 C438.96712951 515.08715175 437.28451231 515.51903647 435.60189354 515.9509151 C428.01988622 517.89752782 420.43856242 519.84678766 412.85781395 521.79829669 C408.83035748 522.83485889 404.80259965 523.87024662 400.77474511 524.9052608 C399.58510155 525.21110095 399.58510155 525.21110095 398.37142479 525.52311969 C389.04252089 527.9199719 379.70726914 530.2891903 370.36068261 532.6161983 C369.46109322 532.84027362 368.56150383 533.06434894 367.63465416 533.29521441 C363.31782144 534.36972363 359.00019364 535.44087455 354.68123925 536.5068233 C346.49151633 538.53531631 338.36684014 540.68479788 330.26522362 543.0434444 C325.46869369 544.39744285 320.61982028 545.46312395 315.74740136 546.50291705 C311.56308466 547.37813607 311.56308466 547.37813607 308.21224511 549.9052608 C308.56303124 550.3813277 308.91381737 550.85739459 309.27523339 551.34788775 C353.7122451 611.65526079 353.7122451 611.65526079 355.46273339 614.03099322 C356.6276836 615.61195063 357.79272245 617.19284272 358.95785058 618.773669 C362.49676687 623.57549462 366.03405333 628.37849734 369.56356347 633.18724322 C370.73756552 634.77945826 371.91799283 636.36695743 373.10506737 637.94945025 C375.96548069 641.77254503 378.69454001 645.60905852 381.23177636 649.6552608 C386.0835342 657.73027312 386.0835342 657.73027312 394.08333886 661.7880733 C396.77090869 661.86007632 399.07492513 661.57202033 401.76693261 661.17479205 C405.88061954 660.85297301 407.70699369 661.84305448 411.21224511 663.9052608 C412.20224511 664.2352608 413.19224511 664.5652608 414.21224511 664.9052608 C415.27474511 666.6552608 415.27474511 666.6552608 416.21224511 668.9052608 C416.55126854 669.6683858 416.89029198 670.4315108 417.23958886 671.2177608 C419.17908408 676.57668737 419.30993839 682.154767 417.18490136 687.47947955 C413.73923265 693.2540767 409.71223818 696.23320126 403.21224511 697.9052608 C397.13973577 698.99167961 392.1944285 697.32636006 387.21224511 693.9052608 C382.76164275 689.22041622 380.92418149 685.4271103 380.89974511 678.9677608 C380.88298729 677.94811236 380.86622948 676.92846393 380.84896386 675.87791705 C381.25879993 672.52431221 382.37274609 670.69605746 384.21224511 667.9052608 C384.21224511 664.56696456 382.9711739 663.64655024 380.64974511 661.1552608 C379.84537011 660.4127608 379.04099511 659.6702608 378.21224511 658.9052608 C374.11192087 668.69442425 370.64366991 678.72246534 367.08724511 688.7177608 C366.58969216 690.11328677 366.58969216 690.11328677 366.08208764 691.53700519 C361.11654876 705.46551573 356.22702234 719.4173023 351.44271386 733.40916705 C349.92649887 737.84194842 348.38606339 742.26523162 346.82552636 746.68260455 C346.25886254 748.290992 346.25886254 748.290992 345.68075097 749.93187213 C344.97310324 751.936953 344.26190981 753.94078752 343.54647362 755.9431026 C343.23766259 756.82006793 342.92885155 757.69703326 342.61068261 758.6005733 C342.20341942 759.7455025 342.20341942 759.7455025 341.7879287 760.91356158 C341.07340765 763.04006023 341.07340765 763.04006023 341.21224511 765.9052608 C340.55224511 766.2352608 339.89224511 766.5652608 339.21224511 766.9052608 C340.03724511 767.7921358 340.86224511 768.6790108 341.71224511 769.5927608 C345.48144232 774.86534151 345.05729258 780.70042148 344.21224511 786.9052608 C342.61465192 791.80851223 339.5214154 795.1350799 335.21224511 797.9052608 C329.90146286 800.49889864 324.86119386 800.17489423 319.21224511 798.9052608 C314.0133027 796.20951288 310.79071619 792.74650875 307.96224511 787.6552608 C306.65684237 782.8687841 306.17294561 778.34460838 308.15755761 773.6865108 C311.62408234 767.84356346 315.70612553 764.08335567 322.21224511 761.9052608 C325.10677636 761.7099483 325.10677636 761.7099483 328.02474511 761.7802608 C329.00056542 761.79830768 329.97638573 761.81635455 330.98177636 761.8349483 C332.08585839 761.86975299 332.08585839 761.86975299 333.21224511 761.9052608 C336.24546051 755.39821449 338.75314804 748.80063252 341.07552636 742.01072955 C341.43059762 740.98329135 341.78566887 739.95585315 342.15149987 738.89728045 C343.27964211 735.63037854 344.40235979 732.36164449 345.52474511 729.0927608 C346.2659067 726.94224095 347.00744032 724.79184927 347.74935448 722.64158893 C348.84899201 719.4541485 349.94848311 716.26665897 351.04699242 713.07882953 C355.3923886 700.47090407 359.74173802 687.86598529 364.33724511 675.34666705 C365.05714207 673.37351766 365.77625715 671.40008568 366.49495995 669.42650104 C366.98351734 668.09236355 367.47619885 666.75973073 367.97249901 665.42845416 C368.70975928 663.44685976 369.4311365 661.46008829 370.14974511 659.47166705 C370.57126854 658.32641559 370.99279198 657.18116412 371.42708886 656.00120807 C372.48537921 651.82826652 372.06814829 649.45099125 370.00057518 645.71702838 C368.35732869 643.37221257 366.70369543 641.03719272 365.02474511 638.7177608 C364.4594912 637.89856158 363.89423729 637.07936236 363.31185448 636.23533893 C362.7491787 635.45223346 362.18650292 634.66912799 361.60677636 633.86229205 C361.09993309 633.15048785 360.59308983 632.43868365 360.07088768 631.70530963 C356.05402602 627.81507962 349.79190702 627.22885701 344.48958886 625.91697955 C343.756213 625.73362552 343.02283715 625.55027148 342.26723778 625.36136127 C339.89537608 624.76924041 337.52262955 624.1807686 335.14974511 623.5927608 C333.50105369 623.18280664 331.8523721 622.77281294 330.20370018 622.36278033 C316.0728525 618.85320945 301.93385021 615.40253649 287.72396386 612.2255733 C285.01169807 611.61891949 282.29945567 611.01216145 279.58724511 610.4052608 C278.91035637 610.25393695 278.23346764 610.1026131 277.53606713 609.94670367 C269.89018688 608.23427404 262.2717735 606.46968615 254.71224511 604.4052608 C246.55927244 602.17945491 238.33396767 600.30846504 230.08724511 598.4677608 C220.48771361 596.32471118 210.89891028 594.1505911 201.33724511 591.8427608 C200.34490868 591.60355914 199.35257226 591.36435748 198.33016503 591.11790729 C192.96673585 589.82150856 187.60662624 588.51188869 182.24740136 587.19822955 C180.52916161 586.77972735 180.52916161 586.77972735 178.77620995 586.35277057 C176.57634178 585.81688077 174.37739443 585.27719219 172.17953026 584.73314166 C170.70105614 584.37361407 170.70105614 584.37361407 169.19271386 584.0068233 C168.32541649 583.79364459 167.45811913 583.58046588 166.56454003 583.36082721 C163.95707382 582.77850349 163.95707382 582.77850349 160.21224511 582.9052608 C159.65537011 583.8127608 159.09849511 584.7202608 158.52474511 585.6552608 C155.4313276 590.00276648 152.27528422 591.4586782 147.21224511 592.9052608 C141.75418915 593.79823156 137.43919469 593.22566274 132.78255761 590.18260455 C128.47773201 586.68091806 125.52638257 582.93444344 124.93880761 577.26854205 C124.73394163 571.11468342 124.90977173 566.55855864 128.68099511 561.5302608 C133.16813268 556.76840052 136.8319468 555.66015412 143.21224511 555.4052608 C149.97712227 555.6504876 153.51702358 557.3597738 158.46224511 562.0302608 C160.21224511 564.9052608 160.21224511 564.9052608 160.55599511 567.30760455 C161.01989476 570.34525518 161.52840908 572.31779549 163.21224511 574.9052608 C167.50708238 576.88884368 171.98886918 577.6048705 176.6160537 578.41600299 C181.5057538 579.33747741 186.31950509 580.59151481 191.14974511 581.7802608 C193.32902827 582.30408129 195.50872188 582.82619686 197.68880761 583.34666705 C198.77838768 583.60721881 199.86796776 583.86777057 200.99056542 584.13621783 C204.03018244 584.86180086 207.0703554 585.58500414 210.11068261 586.30760455 C223.35304186 589.46196181 236.56081906 592.74098167 249.76208031 596.06206012 C259.66018753 598.54949 269.5673664 600.9503134 279.53109276 603.16331744 C287.15594328 604.86514885 294.727707 606.75841874 302.30257714 608.66893268 C312.25060109 611.17577641 322.21994404 613.58142104 332.21224511 615.9052608 C332.94314354 616.07718951 333.67404198 616.24911822 334.42708886 616.4262569 C336.39504652 616.88663805 338.36605654 617.33391585 340.33724511 617.7802608 C341.41232323 618.02518268 342.48740136 618.27010455 343.59505761 618.5224483 C346.31552539 619.12094514 346.31552539 619.12094514 349.21224511 617.9052608 C348.86145897 617.42919391 348.51067284 616.95312701 348.14925683 616.46263385 C342.65202375 609.00210325 337.15479068 601.54157265 331.65755761 594.08104205 C331.08738915 593.30728229 330.51722069 592.53352252 329.9297744 591.73631549 C328.78004228 590.17588303 327.63046671 588.61533521 326.48104393 587.05467486 C323.47974612 582.98001231 320.47541372 578.90763942 317.46615136 574.83885455 C316.54563988 573.59144488 316.54563988 573.59144488 315.60653222 572.31883502 C314.39999555 570.68792807 313.18867863 569.06054503 311.97225487 567.43699908 C308.91345157 563.33284791 306.21246629 559.21768196 303.64974511 554.7802608 C301.58420841 551.72410957 300.77640652 551.0277807 297.11849511 550.2333858 C294.82967099 550.09935556 292.53623415 550.02770688 290.24349511 550.0224483 C284.96552419 549.81840303 282.43234664 547.19314575 278.96224511 543.5302608 C275.55812896 538.42408659 274.16886977 533.01011651 275.21224511 526.9052608 C277.03884197 521.60280971 279.62198472 517.84156785 284.39974511 514.8427608 C289.32570251 512.49433925 293.84671314 511.82524229 299.21224511 512.9052608 C305.0269872 515.35726048 309.36758183 519.21593425 312.21224511 524.9052608 C312.28391861 527.45683735 312.30532953 529.97999051 312.27474511 532.5302608 C312.27023339 533.23666705 312.26572167 533.9430733 312.26107323 534.6708858 C312.24928386 536.41571355 312.23134835 538.1604978 312.21224511 539.9052608 C323.91635391 537.49465845 335.44945879 534.55913674 346.98278344 531.43785357 C355.21823894 529.21031347 363.46480351 527.08819873 371.77474511 525.1552608 C373.43629279 524.75067966 375.09775565 524.34574995 376.75912011 523.94041705 C379.55039099 523.26635483 382.25913437 522.73603473 385.10287011 522.27635455 C388.70003795 521.55774225 391.07571874 520.8115831 394.21224511 518.9052608 C395.72762599 516.51706206 396.87831125 514.38947225 398.01693261 511.8349483 C398.70445681 510.37880315 399.39271505 508.92300441 400.08162987 507.46751666 C400.60637398 506.33671176 400.60637398 506.33671176 401.14171898 505.18306231 C402.86804682 501.5098851 404.71024191 497.8965995 406.54427636 494.27635455 C407.28293483 492.80600425 408.02088287 491.33529685 408.75814354 489.86424518 C409.12870873 489.12520953 409.49927392 488.38617389 409.88106835 487.62474322 C415.95150335 475.51238203 421.99206907 463.39257173 427.76717675 451.13572955 C429.5263293 447.40379055 431.29323487 443.69402729 433.24349511 440.05760455 C433.81068261 438.99670611 434.37787011 437.93580768 434.96224511 436.8427608 C435.43146386 436.00615924 435.90068261 435.16955768 436.38412011 434.30760455 C437.47245113 431.15041785 436.89734545 429.15239321 436.21224511 425.9052608 C435.36756784 413.71975271 435.36756784 413.71975271 437.89974511 408.2802608 C442.79394375 403.25378652 446.31093534 400.78272891 453.39974511 400.5927608 C458.83628139 400.66457766 462.87911617 401.53504941 467.21224511 404.9052608 C471.27486254 409.2718147 472.88143096 413.14847624 473.58724511 419.0302608 C473.06303947 424.44705236 471.49636198 428.54607428 468.21224511 432.9052608 C463.11577957 436.88299 457.83305528 438.48456189 451.41537011 438.27635455 C448.56489063 437.7962206 445.94418379 436.83757799 443.21224511 435.9052608 C436.1301654 449.9682254 429.08410438 464.03874873 422.35238183 478.273669 C419.84670867 483.55152697 417.27905919 488.79343729 414.64193261 494.0068233 C414.34047829 494.60383044 414.03902398 495.20083758 413.72843468 495.81593585 C412.25201106 498.73753918 410.7683729 501.65513117 409.27450097 504.56785846 C408.74477684 505.61248248 408.21505272 506.6571065 407.66927636 507.7333858 C407.19465966 508.660544 406.72004296 509.58770221 406.23104393 510.54295611 C405.01423799 512.93561102 405.01423799 512.93561102 405.21224511 515.9052608 C413.98709227 514.31336375 422.52485291 512.34014093 431.09456933 509.883044 C436.93207478 508.22372353 442.80147379 506.77892881 448.71224511 505.4052608 C455.25828154 503.8810699 461.74875698 502.24867988 468.21224511 500.4052608 C475.56012908 498.30960762 482.9548832 496.51323446 490.39583886 494.7802608 C496.04322746 493.45341473 501.63384606 491.99624805 507.21224511 490.4052608 C514.56012908 488.30960762 521.9548832 486.51323446 529.39583886 484.7802608 C535.04322746 483.45341473 540.63384606 481.99624805 546.21224511 480.4052608 C553.56012908 478.30960762 560.9548832 476.51323446 568.39583886 474.7802608 C574.04322746 473.45341473 579.63384606 471.99624805 585.21224511 470.4052608 C592.56012908 468.30960762 599.9548832 466.51323446 607.39583886 464.7802608 C613.04322746 463.45341473 618.63384606 461.99624805 624.21224511 460.4052608 C631.56012908 458.30960762 638.9548832 456.51323446 646.39583886 454.7802608 C652.78590183 453.27892442 659.09731201 451.58062917 665.40804589 449.77806354 C671.09848356 448.17038651 676.82583158 446.79593218 682.58724511 445.4677608 C692.94135424 443.0737527 703.07205952 440.07474953 713.21224511 436.9052608 C709.4671094 429.05809999 705.18250433 421.60859184 700.71224511 414.1552608 C699.4098811 411.97313662 698.10780887 409.79083829 696.80599511 407.6083858 C696.11263054 406.50204791 695.41926598 405.39571002 694.70489037 404.25584674 C692.78850847 401.07430138 691.29924801 397.84895634 689.85509789 394.42894244 C685.19248182 383.83990009 685.19248182 383.83990009 676.58636773 376.64594531 C668.73242269 374.62241871 660.64812083 375.14416998 652.61068261 375.3896358 C649.8458147 375.40403095 647.08143291 375.3842823 644.31661522 375.36574054 C638.2800378 375.34225479 632.24828608 375.39776252 626.21267235 375.50480914 C617.24908867 375.66229842 608.28838829 375.69214092 599.32357347 375.68810511 C594.99993221 375.68622569 590.6762964 375.68873415 586.35265648 375.69221759 C585.03388058 375.69324227 585.03388058 375.69324227 583.68846273 375.69428766 C577.25237837 375.70185548 570.81662572 375.73280464 564.38067162 375.77333331 C535.02775274 375.95350152 505.68653245 375.77675902 476.33505118 375.45271945 C472.73636762 375.41299462 469.13767768 375.37390243 465.53898537 375.33497882 C455.88988172 375.23041219 446.24079156 375.1246835 436.59172547 375.01670337 C411.35876072 374.73474414 386.12554081 374.48913444 360.89193261 374.2724483 C359.812043 374.26309379 358.73215339 374.25373927 357.61953986 374.24410129 C310.48375322 373.83775967 263.34942225 373.80677821 216.21224511 373.9052608 C215.59365624 375.02360309 214.97506737 376.14194537 214.33773339 377.29417682 C211.68683459 382.08671735 208.34156989 384.09396799 203.21224511 385.9052608 C198.28024965 386.76234538 193.8975542 386.59258348 189.39974511 384.2802608 C185.13375798 381.10168216 181.93469674 378.07261571 180.21224511 372.9052608 C179.74070114 367.11531931 179.37999331 361.76950482 181.77474511 356.4052608 C182.98130761 355.1677608 182.98130761 355.1677608 184.21224511 353.9052608 C184.88900292 353.18209674 184.88900292 353.18209674 185.57943261 352.4443233 C190.22525248 348.26077406 195.05933847 348.23311139 201.11458886 348.4833858 C206.60104135 349.23059497 209.54702479 351.28504644 213.52474511 355.1552608 C215.21224511 357.9052608 215.21224511 357.9052608 217.21224511 365.9052608 C286.51224511 366.4002608 286.51224511 366.4002608 357.21224511 366.9052608 C353.10329376 362.7827441 353.10329376 362.7827441 348.82943261 358.8896358 C348.22534569 358.36547076 347.62125878 357.84130572 346.9988662 357.3012569 C346.36803124 356.75807818 345.73719628 356.21489947 345.08724511 355.6552608 C344.09265282 354.79602008 344.09265282 354.79602008 343.07796776 353.91942096 C338.42821391 349.91643316 333.712856 346.00338916 328.94662011 342.1396358 C323.07524074 337.34188009 317.32347209 332.39956275 311.54622948 327.48924518 C305.00546288 321.93228366 298.46492629 316.37721523 291.77865136 310.99510455 C290.07086276 309.60443956 288.39041002 308.17950122 286.73958886 306.72166705 C284.61664753 304.90352197 282.6567325 303.26066723 280.21224511 301.9052608 C276.784663 302.18402162 276.784663 302.18402162 274.21224511 303.9052608 C270.46285024 305.77995824 266.29475549 305.43646464 262.21224511 304.9052608 C257.07515594 302.79975317 253.26820985 299.55032722 250.21224511 294.9052608 C248.37357694 289.38925629 248.10212269 282.99667793 250.08333886 277.47947955 C252.70193499 272.92054661 256.04948357 269.39236059 261.21224511 267.9052608 C267.64967673 267.15249662 273.81986665 266.92517194 279.21224511 270.9052608 C286.0045058 277.69752149 286.0045058 277.69752149 286.34505761 282.95604205 C286.34119042 284.07559283 286.34119042 284.07559283 286.33724511 285.2177608 C286.33982323 285.95639361 286.34240136 286.69502643 286.34505761 287.45604205 C286.21224511 289.9052608 286.21224511 289.9052608 285.43880761 292.9286983 C284.87539399 295.97672966 284.87539399 295.97672966 286.91537011 298.14354205 C287.75583886 298.82803424 288.59630761 299.51252643 289.46224511 300.2177608 C290.38908104 300.98990924 291.31591698 301.76205768 292.27083886 302.55760455 C293.24150292 303.33233111 294.21216698 304.10705768 295.21224511 304.9052608 C296.09009667 305.62842486 296.96794823 306.35158893 297.87240136 307.09666705 C299.67634128 308.5817958 301.486496 310.05940077 303.30208886 311.5302608 C306.42654299 314.08015089 309.51197315 316.67149624 312.58724511 319.2802608 C313.12953759 319.74013385 313.67183007 320.2000069 314.23055565 320.67381549 C316.44741128 322.55518063 318.66280219 324.43826653 320.87826073 326.32127643 C327.33631437 331.80796594 333.82722127 337.24303209 340.39974511 342.5927608 C344.08434536 345.62232101 347.71805898 348.70974242 351.35213768 351.79954791 C355.87466519 355.63776788 360.45752401 359.39521575 365.06771386 363.12791705 C367.21224511 364.9052608 367.21224511 364.9052608 369.21224511 366.9052608 C371.45086516 367.23662554 371.45086516 367.23662554 374.08333886 367.22410846 C375.11392922 367.24389758 376.14451958 367.2636867 377.20633996 367.2840755 C378.91082551 367.30152316 378.91082551 367.30152316 380.64974511 367.3193233 C381.84419747 367.33941455 383.03864983 367.3595058 384.26929772 367.38020587 C388.25022688 367.4430396 392.23103712 367.49008581 396.21224511 367.5302608 C396.89333462 367.53714923 397.57442414 367.54403766 398.27615273 367.55113482 C400.36853444 367.5719457 402.46092061 367.59222304 404.55330956 367.61229205 C405.25713296 367.61908355 405.96095637 367.62587504 406.68610775 367.63287234 C411.0514348 367.67470057 411.0514348 367.67470057 415.41679871 367.71242785 C424.42061467 367.78632623 433.41349716 367.94665528 442.41218293 368.26422191 C448.28104094 368.4710412 454.14981023 368.62694781 460.02105057 368.74841762 C463.51748816 368.82358182 467.00832855 368.92478096 470.50155175 369.09453082 C491.06975445 370.06856647 504.23872569 365.99292006 521.12385094 354.88521075 C526.36033348 351.52813494 531.82422118 348.58431421 537.27474511 345.5927608 C539.34742223 344.43319968 541.41918342 343.27199818 543.48958886 342.1083858 C548.43135263 339.33962515 553.38217179 336.58760915 558.33724511 333.8427608 C565.92873343 329.63599054 573.48185592 325.36299024 581.03280175 321.08397174 C588.75766182 316.7128314 596.51169281 312.39551907 604.27474511 308.0927608 C613.29175981 303.09461302 622.28840822 298.06822003 631.21224511 292.9052608 C629.77095137 289.06122334 627.99834176 285.56169885 625.98958886 281.9833858 C625.36890526 280.87608111 624.74822167 279.76877643 624.10872948 278.62791705 C623.46226464 277.48194049 622.81579979 276.33596393 622.14974511 275.1552608 C621.4926021 273.98221923 620.83569868 272.80904342 620.17904198 271.63572955 C617.60427074 266.47931012 617.60427074 266.47931012 614.21224511 261.9052608 C611.44029054 261.5248315 608.68555282 261.20519674 605.90267479 260.92821002 C605.0492487 260.84121278 604.19582261 260.75421554 603.31653512 260.66458201 C593.94664839 259.73730575 584.56172276 259.12242831 575.16537011 258.5380733 C573.28105222 258.41780745 571.39676021 258.29713545 569.5124923 258.17608905 C565.5451936 257.92178306 561.57777048 257.66956986 557.61022484 257.4191463 C547.19958757 256.76164754 536.78990078 256.08932944 526.38021386 255.41697955 C525.35501578 255.35086789 524.3298177 255.28475623 523.27355301 255.21664119 C507.10090668 254.17273601 490.93566131 253.05613817 474.77474511 251.8427608 C449.6134898 249.95551693 424.43648616 248.3297233 399.25580609 246.72655368 C396.00504534 246.51943987 392.75434721 246.31135238 389.50365174 246.10321689 C386.56757577 245.91591278 383.63132949 245.731342 380.69507039 245.54693294 C378.71026094 245.41778681 376.72638872 245.2744817 374.74257958 245.1307857 C372.6169677 244.99499732 370.48712578 244.90192795 368.3572036 244.89213824 C359.20765174 244.66561451 351.7012582 240.20569212 343.75912011 236.1005733 C342.17167782 235.29715355 340.58338179 234.49541872 338.99428856 233.69526935 C334.81938551 231.58789412 330.65554637 229.45954849 326.49398339 227.32597613 C322.33555735 225.1977402 318.16842891 223.0867195 314.00130761 220.9755733 C312.36722351 220.1475905 310.73314956 219.3195877 309.09908593 218.49156451 C307.89815049 217.88307918 307.89815049 217.88307918 306.67295372 217.26230121 C304.26606974 216.04159796 301.86054667 214.81824811 299.4552871 213.59434772 C289.97067093 208.77295885 280.43971731 204.07510207 270.8169204 199.53413653 C264.93125153 196.75090508 259.1196039 193.850068 253.33724511 190.8583858 C252.57099816 190.46420459 251.80475121 190.07002337 251.01528466 189.66389728 C247.95758728 188.0909216 244.90059941 186.51756757 241.85775292 184.91600299 C239.56745471 183.71343033 237.26639393 182.53415115 234.96224511 181.3583858 C233.9434829 180.81181323 233.9434829 180.81181323 232.90413964 180.25419879 C228.19764602 177.88671745 225.28487735 177.58072076 220.21224511 178.9052608 C217.31652178 179.89903046 214.51520942 181.06099052 211.70443261 182.2724483 C210.88204094 182.61897449 210.05964928 182.96550067 209.21233666 183.32252765 C206.50060959 184.4673345 203.79398972 185.62372866 201.08724511 186.7802608 C199.17969108 187.58831675 197.2718074 188.3955949 195.36361229 189.2021358 C191.35727081 190.89685768 187.35291797 192.59616371 183.34994042 194.29881549 C176.31048012 197.29126463 169.25999824 200.25731214 162.20878136 203.22192645 C157.38307588 205.25170107 152.55953717 207.28628502 147.74129784 209.3337276 C145.90479178 210.114085 144.06828464 210.89443988 142.23177636 211.67479205 C141.35506783 212.04740664 140.4783593 212.42002124 139.57508385 212.80392718 C134.54085072 214.93757987 129.4894514 217.01470785 124.41146386 219.04197955 C123.32252831 219.48606158 122.23359276 219.93014361 121.11165917 220.38768268 C119.23313246 221.1519761 117.34641084 221.8966623 115.44954979 222.61424518 C110.27920395 224.74977702 108.04074689 226.81216426 105.87069237 232.01390338 C105.30465652 233.63981357 104.75666962 235.27198726 104.21224511 236.9052608 C101.96224511 237.9677608 101.96224511 237.9677608 99.21224511 238.9052608 C98.46974511 239.2765108 97.72724511 239.6477608 96.96224511 240.0302608 C91.50559291 241.76646832 86.25411456 241.66605947 80.96224511 239.4052608 C75.66689706 236.4563544 73.07924663 231.50626537 71.21224511 225.9052608 C70.67463796 219.56149643 71.53076715 215.17416504 75.21224511 209.9052608 C79.43739588 205.4484438 83.29982494 203.75622834 89.39974511 203.5927608 C94.82291149 203.67861568 98.97067469 204.38448013 103.21224511 207.9052608 C105.50274397 210.75489644 107.41735896 213.72341717 109.21224511 216.9052608 C115.61697599 214.87215042 121.81599763 212.50786068 128.00912011 209.9052608 C128.94029656 209.51690051 129.87147301 209.12854022 130.83086693 208.72841144 C133.87602717 207.45727248 136.91917507 206.18139462 139.96224511 204.9052608 C142.09156256 204.01493971 144.22095825 203.12480572 146.3504287 202.23485065 C163.05291101 195.24934069 179.73703415 188.22004248 196.41439354 181.17479205 C197.29781929 180.80211703 198.18124505 180.42944201 199.09144127 180.04547381 C200.79727919 179.32228576 202.50083181 178.59367862 204.20182335 177.859164 C207.91364129 176.26079617 211.60484257 174.73724564 215.43465722 173.44359088 C222.02308189 171.2164466 222.02308189 171.2164466 226.89290917 166.47362018 C228.09525283 163.44417539 228.84839059 160.5305051 229.52474511 157.3427608 C230.11318619 155.02142892 230.7058037 152.70115265 231.30208886 150.3818233 C231.5984121 149.16784869 231.89473534 147.95387408 232.20003808 146.70311236 C233.26127703 142.72129056 234.53492838 138.87457889 235.90365136 134.9911983 C236.35503978 133.68094742 236.80581038 132.37048353 237.25594628 131.05980182 C238.12476378 128.53187974 239.02570069 126.02434026 239.94784081 123.51439166 C242.20337372 117.57610181 242.20337372 117.57610181 241.16195214 111.64036822 C239.62311803 109.85800625 237.99825437 108.43121336 236.21224511 106.9052608 C233.07936643 101.37050848 232.07008654 96.14906098 233.21224511 89.9052608 C235.4086044 84.58075342 238.3957243 80.90703018 243.58724511 78.3427608 C249.55954318 76.17192549 254.55543006 75.91777062 260.46224511 78.5927608 C265.23269618 81.23989346 268.0943267 84.91558863 270.21224511 89.9052608 C271.02854139 96.01799112 270.74957288 101.7866741 267.60287011 107.18260455 C263.96914822 111.68392857 259.3926471 113.97245983 253.71224511 114.7177608 C251.97974511 114.8105733 251.97974511 114.8105733 250.21224511 114.9052608 C246.36099416 123.64825611 243.67052463 132.7591652 240.89339745 141.88279986 C240.08658449 144.53243032 239.27298466 147.17990435 238.45833886 149.8271358 C237.93580488 151.53274291 237.4136562 153.23846813 236.89193261 154.9443233 C236.65231804 155.72473987 236.41270348 156.50515643 236.16582787 157.30922198 C234.69720581 162.14410625 233.40088796 166.99383038 232.21224511 171.9052608 C243.05450967 177.70026427 253.96990242 183.33744695 264.96224511 188.8427608 C266.02926659 189.3785274 267.09628808 189.914294 268.19564354 190.46629596 C273.50759625 193.11757563 278.82934754 195.73414973 284.20638573 198.25145221 C294.42668947 203.05025473 304.47866261 208.05934953 314.39894593 213.45233035 C351.18081243 233.83995391 351.18081243 233.83995391 392.13787377 239.91186786 C401.33351092 239.75648739 410.45467084 240.39474869 419.62240136 241.0302608 C420.45654501 241.08782487 421.29068867 241.14538894 422.15010941 241.20469737 C425.58363375 241.44248483 429.01701942 241.68212815 432.45020115 241.92481399 C440.74200741 242.51044741 449.03672845 243.04519977 457.33252823 243.57077098 C461.24306443 243.81873516 465.15342493 244.0694401 469.06380761 244.31981158 C469.82094772 244.36822035 470.57808783 244.41662911 471.35817158 244.46650481 C479.60140707 244.9936 487.84434167 245.52534571 496.08724511 246.05760455 C496.76488915 246.10135274 497.44253319 246.14510093 498.1407119 246.19017482 C501.83122944 246.42843676 505.52174073 246.6667952 509.21224511 246.9052608 C508.4195931 245.30692158 507.62543848 243.70932748 506.83065331 242.11204791 C506.38857033 241.22230777 505.94648736 240.33256763 505.49100792 239.41586566 C503.92640856 236.34407572 502.20118681 233.40656896 500.39974511 230.4677608 C499.61236295 229.17274913 498.82599114 227.87712287 498.04037011 226.58104205 C497.37811425 225.48977008 497.37811425 225.48977008 496.70247948 224.37645221 C493.65393992 219.32119051 490.65619979 214.23561917 487.64974511 209.1552608 C486.9632871 207.99644925 486.27676313 206.83767677 485.59017479 205.67894244 C482.37270486 200.24813346 479.15822094 194.81558498 475.95038903 189.37907672 C474.52643931 186.96629703 473.10111347 184.5543317 471.67565453 182.14244342 C470.68381101 180.46294494 469.69396397 178.78226791 468.70418847 177.10154986 C465.63847243 171.91507685 462.54082514 166.74846383 459.37240136 161.6240108 C458.53334252 160.261794 458.53334252 160.261794 457.677333 158.87205768 C457.19385399 158.22301471 456.71037499 157.57397174 456.21224511 156.9052608 C455.55224511 156.9052608 454.89224511 156.9052608 454.21224511 156.9052608 C453.49037011 157.6683858 452.76849511 158.4315108 452.02474511 159.2177608 C447.97479384 163.08771424 444.27211651 164.68456029 438.71224511 165.2802608 C432.5630849 164.62142221 427.63739494 162.2074898 423.21224511 157.9052608 C419.2829642 152.48556299 419.32631397 146.33458961 420.21224511 139.9052608 C422.01733317 134.94728559 425.16097061 130.89417593 429.99740136 128.53416705 C436.4078844 126.71390643 443.74236988 126.59708255 449.71224511 129.7802608 C452.84343518 132.14247157 453.91678802 134.29508479 455.31942284 137.91600299 C457.11570884 141.63680842 457.11570884 141.63680842 460.27770531 144.1338985 C462.84597395 144.92352506 465.34506612 145.42837539 467.99740136 145.8583858 C468.95825142 146.05006335 469.91910149 146.2417409 470.90906823 146.43922687 C474.02473077 147.05155904 477.14787732 147.60330959 480.27474511 148.1552608 C482.42368699 148.56713249 484.57180408 148.98333053 486.71908104 149.40379596 C490.95502056 150.22857212 495.19396518 151.03275819 499.43734276 151.81834674 C506.64586406 153.16086965 513.80202512 154.70212344 520.96224511 156.2802608 C523.10256815 156.74000213 525.24317895 157.19840655 527.38412011 157.6552608 C531.24991294 158.48309747 535.11425912 159.31730536 538.97787011 160.1552608 C540.72263178 160.53040034 542.46742149 160.90540948 544.21224511 161.2802608 C544.97891503 161.44832232 545.74558495 161.61638385 546.53548729 161.78953815 C549.87386953 162.50270294 552.77671797 162.9052608 556.21224511 162.9052608 C554.73053127 158.88685661 552.81658572 155.32674555 550.64974511 151.63572955 C550.30235787 151.04245868 549.95497063 150.4491878 549.59705651 149.83793902 C548.47258241 147.92061927 547.34271717 146.00654927 546.21224511 144.0927608 C545.43202342 142.76668774 544.65183149 141.44059717 543.87166893 140.11448932 C539.58955374 132.85028566 535.25091327 125.62967507 530.73617089 118.50706744 C527.60423721 113.56277584 524.58581418 108.55641488 521.58724511 103.5302608 C507.56673824 80.00337818 507.56673824 80.00337818 492.60653222 57.07152057 C488.67339622 51.25081727 485.29872265 45.13327803 481.92708886 38.9755733 C480.51176404 36.11393241 480.51176404 36.11393241 479.21224511 34.9052608 C476.73238857 34.79735622 474.27987443 34.75475753 471.79911339 34.75377154 C471.01340515 34.74953913 470.22769691 34.74530672 469.41817933 34.74094605 C466.7640022 34.72784718 464.10985516 34.72187815 461.45565331 34.71580768 C459.56018938 34.70786975 457.66472729 34.69948215 455.7692672 34.69067645 C451.67303351 34.67256818 447.57680402 34.65756957 443.48054993 34.64490008 C436.98444732 34.62468458 430.48838963 34.59702154 423.99232018 34.56822467 C411.34291669 34.51313539 398.69349159 34.46509022 386.0440551 34.41828418 C370.02001132 34.35898643 353.99597942 34.2983164 337.97198087 34.22771192 C331.53617282 34.19962544 325.10036905 34.17593355 318.66453147 34.15578723 C314.62200834 34.14221605 310.57950768 34.12481464 306.53700364 34.10647655 C304.68697102 34.09884339 302.83693132 34.09272233 300.98688805 34.08838344 C289.301025 34.05995527 277.66183295 33.72148316 265.99055684 33.12998652 C260.07987343 32.83568136 254.17649497 32.7601079 248.25912011 32.7724483 C247.1819674 32.77149158 246.10481469 32.77053485 244.99502099 32.76954913 C242.76746097 32.76888088 240.53989882 32.77063802 238.31234276 32.77488971 C234.92346406 32.78032298 231.53471397 32.77486549 228.14583886 32.76854205 C225.95443232 32.76920184 223.76302586 32.77048093 221.57162011 32.7724483 C220.57668541 32.77042407 219.58175072 32.76839984 218.55666649 32.76631427 C217.60737267 32.76946643 216.65807885 32.77261859 215.68001854 32.77586627 C214.86257164 32.77666186 214.04512475 32.77745746 213.20290673 32.77827716 C210.6460395 32.88684187 208.16798285 33.12212108 205.6270858 33.40709376 Z " fill="#113656" transform="translate(737.7877548933029,71.09473919868469)"/>
<path d="M0 0 C52.47 0 104.94 0 159 0 C156.39872149 1.73418567 154.60784889 2.57388733 151.703125 3.5234375 C128.53108722 11.35824535 107.20587848 22.14873574 89.23046875 38.921875 C87.18217378 40.83026891 85.07964403 42.63624726 82.9375 44.4375 C34.00610652 87.39926347 14.1552062 164.8179832 1 226 C0.72752441 227.26223389 0.45504883 228.52446777 0.17431641 229.82495117 C-1.57818283 238.23176391 -2.86121356 246.62441604 -3.88037109 255.14428711 C-4.12624725 257.19791736 -4.38080831 259.25033265 -4.63671875 261.30273438 C-5.11792536 265.19907062 -5.5659381 269.09811578 -6 273 C-6.10892578 273.97243652 -6.21785156 274.94487305 -6.33007812 275.94677734 C-7.28285198 285.68871866 -7.24168614 295.47063542 -7.25 305.25 C-7.25133942 306.18075348 -7.25267883 307.11150696 -7.25405884 308.07046509 C-7.24872084 325.19385135 -6.21199644 341.64430336 -2.3125 358.375 C0.93266572 373.57061724 0.59806678 391.13932789 -4 406 C-4.18804199 406.65774414 -4.37608398 407.31548828 -4.56982422 407.99316406 C-11.4866097 432.1056175 -24.48326515 452.5703494 -40 472 C-40.56589844 472.721875 -41.13179687 473.44375 -41.71484375 474.1875 C-44.21429942 477.26375313 -46.50222826 479.39959125 -49.875 481.5 C-52.79814587 483.48124331 -52.93886228 483.71978546 -53.75 487.4375 C-52.31365235 494.26015132 -48.34626907 496.97198452 -42.75 500.625 C-32.25072381 506.86006504 -21.03247085 511.79559502 -10 517 C-6.90827841 518.46249566 -3.8251648 519.94053992 -0.75 521.4375 C-0.12569092 521.73076172 0.49861816 522.02402344 1.1418457 522.32617188 C5.17213998 524.30221453 8.11048707 526.56137299 11 530 C12.19238179 537.39276707 9.68420895 543.67681875 7.19140625 550.546875 C5.04478132 556.76856824 3.3623122 563.79098929 5.8359375 570.1484375 C10.19798047 577.78933156 17.46411961 581.91806479 25 586 C24.5056169 588.77374941 23.87838535 591.38438044 23.02734375 594.07421875 C20.34757464 602.95875791 19.56789402 611.34291799 19.5 620.625 C19.48187256 621.75123779 19.46374512 622.87747559 19.44506836 624.0378418 C19.49172635 632.30915864 19.49172635 632.30915864 24 639 C27.11121436 641.0335019 30.34769966 642.6884694 33.6875 644.3125 C35.42112775 645.18248902 37.15423013 646.05352599 38.88671875 646.92578125 C40.03466919 647.48906128 40.03466919 647.48906128 41.20581055 648.0637207 C43 649 43 649 44 650 C43.9140625 651.890625 43.9140625 651.890625 43.625 654.25 C43.53476562 655.01828125 43.44453125 655.7865625 43.3515625 656.578125 C43 659 43 659 42.48046875 661.328125 C39.56127192 677.56170738 44.07764175 692.4415442 53.28515625 705.875 C56.68951532 710.25359687 60.74850799 713.24950266 66 715 C68.24655587 715.14977039 70.49863768 715.22150174 72.75 715.25 C74.53664063 715.28867188 74.53664063 715.28867188 76.359375 715.328125 C87.97530604 714.87455698 99.3998457 711.20982067 110.3125 707.5 C110.95240875 707.28446472 111.5923175 707.06892944 112.25161743 706.84686279 C128.36456347 701.40318931 143.85582342 694.64208625 159.375 687.70703125 C159.98853836 687.43320618 160.60207672 687.1593811 161.23420715 686.8772583 C164.19621962 685.55459633 167.15478972 684.22518351 170.1081543 682.88330078 C182.6203916 677.24315312 194.97227418 674.55581003 208.58984375 677.875 C220.79359819 682.64969929 232.2791405 692.37759362 237.8125 704.375 C249.73809781 736.14908414 247.0710345 776.29147395 240.75 809 C240.47990112 810.41224854 240.47990112 810.41224854 240.2043457 811.85302734 C238.22644277 821.27586405 235.10239096 829.69282711 232 839 C155.44 839 78.88 839 0 839 C-4.95 830.42 -9.9 821.84 -15 813 C-17.65583797 808.49255668 -20.31607521 803.99037674 -23 799.5 C-31.42594218 785.33742224 -39.64828948 771.06114096 -47.85449219 756.77050781 C-55.48154397 743.49438243 -63.18808762 730.27173104 -71.01489258 717.11230469 C-76.24666467 708.30344276 -81.38605433 699.44416125 -86.49389648 690.56298828 C-92.37418763 680.33888664 -98.31508986 670.15082226 -104.26611328 659.96777344 C-107.1801084 654.98009043 -110.08982568 649.98991295 -113 645 C-114.16664643 642.9999882 -115.33331309 640.99998819 -116.5 639 C-127 621 -127 621 -137.5 603 C-138.07741943 602.01016113 -138.65483887 601.02032227 -139.24975586 600.00048828 C-140.41731728 597.99890789 -141.58479764 595.99728023 -142.75219727 593.99560547 C-145.65451416 589.01939608 -148.55819916 584.04399545 -151.46484375 579.0703125 C-157.46777059 568.79467443 -163.44187788 558.50361437 -169.375 548.1875 C-174.51662265 539.2512997 -179.72970562 530.36088999 -185 521.5 C-190.90922061 511.56489012 -196.73079003 501.58349081 -202.49389648 491.56298828 C-206.6597931 484.3197159 -210.84898341 477.09067663 -215.0625 469.875 C-215.63194336 468.89974365 -216.20138672 467.9244873 -216.78808594 466.91967773 C-218.52490798 463.94616952 -220.26235871 460.97302954 -222 458 C-223.23576849 455.88547008 -224.47144446 453.7708861 -225.70703125 451.65625 C-226.31764404 450.61259277 -226.92825684 449.56893555 -227.55737305 448.49365234 C-228.75405277 446.44041034 -229.94449526 444.38351836 -231.12817383 442.32275391 C-233.58616742 438.05220725 -236.04674112 433.84726096 -238.8671875 429.8046875 C-239.48134521 428.88357178 -239.48134521 428.88357178 -240.10791016 427.94384766 C-241.14716218 426.40252005 -242.23522547 424.89438901 -243.328125 423.390625 C-244.49876541 417.48297455 -240.93624422 413.00231902 -238 408 C-237.17314697 406.56914063 -237.17314697 406.56914063 -236.32958984 405.109375 C-234.60426428 402.17849144 -232.8387834 399.27525666 -231.0625 396.375 C-223.76511516 384.33813278 -216.70706994 372.17465453 -209.703125 359.96533203 C-207.2293607 355.65823036 -204.74083678 351.35974432 -202.25 347.0625 C-201.37106517 345.54558948 -200.49215855 344.02866261 -199.61328125 342.51171875 C-198.97060303 341.40256104 -198.97060303 341.40256104 -198.31494141 340.27099609 C-196.95203318 337.91715794 -195.59104305 335.56221916 -194.23046875 333.20703125 C-189.90803203 325.72719843 -185.57387806 318.25504901 -181.1875 310.8125 C-172.25218936 295.65112221 -163.39904186 280.44274774 -154.625 265.1875 C-148.8267792 255.11016059 -142.9252518 245.09793534 -136.98095703 235.10620117 C-131.79412136 226.37441945 -126.70881514 217.58756706 -121.65112305 208.78051758 C-117.10380082 200.87662509 -112.47555516 193.02335414 -107.8125 185.1875 C-101.55784299 174.67264228 -95.44075602 164.08823059 -89.39697266 153.45117188 C-83.36937867 142.87496712 -77.22629383 132.36554676 -71.03710938 121.88330078 C-67.27072936 115.4900599 -63.57365528 109.0575891 -59.875 102.625 C-54.65030467 93.5427512 -49.35690691 84.50486992 -44 75.5 C-38.16774933 65.69477084 -32.42342195 55.84349011 -26.73901367 45.9519043 C-21.09322846 36.13609784 -15.37077025 26.36624329 -9.63305664 16.60400391 C-9.28692322 16.01484695 -8.94078979 15.42569 -8.58416748 14.81867981 C-7.64879665 13.22690015 -6.71273067 11.63552903 -5.77661133 10.04418945 C-3.82983754 6.70842989 -1.91622835 3.35339961 0 0 Z " fill="#113657" transform="translate(721,117)"/>
<path d="M0 0 C12.74397212 1.64921992 25.25716531 4.50042245 37.8125 7.1875 C40.13992988 7.68298704 42.46740413 8.17826571 44.79492188 8.67333984 C81.7606531 16.54679183 81.7606531 16.54679183 97 20 C97.70406982 20.08000244 98.40813965 20.16000488 99.13354492 20.24243164 C102.09550048 21.44464853 102.89348539 23.62041245 104.42578125 26.36328125 C105.05806641 27.47896484 105.69035156 28.59464844 106.34179688 29.74414062 C106.99910823 30.93336705 107.65600783 32.12282116 108.3125 33.3125 C109.60001221 35.60040011 110.88777154 37.88816117 112.17578125 40.17578125 C112.81322266 41.31708496 113.45066406 42.45838867 114.10742188 43.63427734 C117.00842966 48.79337091 120.00228942 53.89668864 123 59 C124.1435633 60.95292938 125.2867924 62.9060545 126.4296875 64.859375 C126.99349121 65.82278809 127.55729492 66.78620117 128.13818359 67.77880859 C132.918873 75.95718786 137.69465276 84.13866701 142.375 92.375 C142.74995605 93.02823242 143.12491211 93.68146484 143.51123047 94.35449219 C146 98.76536496 146 98.76536496 146 101 C131.75266731 101.15933917 117.53397855 100.46591355 103.31026077 99.71780109 C98.82157305 99.48292782 94.33448227 99.27241009 89.84228516 99.11694336 C85.46084165 98.96459191 81.08631242 98.75076208 76.7097702 98.49431419 C75.05389603 98.40775465 73.39673993 98.34272518 71.73914337 98.30047035 C58.85937684 97.95020775 58.85937684 97.95020775 54.26623535 93.13269043 C52.11563786 89.93742999 50.55803773 86.51885221 49 83 C48.00307267 81.27502356 46.98691095 79.56074721 45.9375 77.8671875 C44.95718208 76.20380296 43.97804889 74.53971972 43 72.875 C41.87127783 70.95952693 40.74236267 69.04416758 39.61328125 67.12890625 C39.02627441 66.13262207 38.43926758 65.13633789 37.83447266 64.10986328 C34.62705194 58.67252963 31.40688313 53.24275642 28.1875 47.8125 C27.52524414 46.69504395 26.86298828 45.57758789 26.18066406 44.42626953 C23.01462968 39.0842534 19.84767711 33.74278473 16.6789093 28.40238953 C15.21986208 25.94326789 13.7612303 23.48389996 12.30264282 21.02450562 C11.27793894 19.29709842 10.25262545 17.57005289 9.22729492 15.84301758 C6.10914754 10.58517733 3.009939 5.32059924 0 0 Z " fill="#1EA5DE" transform="translate(1200,223)"/>
<path d="M0 0 C0.35602295 0.66717041 0.7120459 1.33434082 1.07885742 2.02172852 C8.00865012 14.9914013 15.01664094 27.90028657 22.28466797 40.68432617 C26.00219349 47.22526702 29.67904801 53.78695753 33.3125 60.375 C34.02442505 61.66059814 34.02442505 61.66059814 34.75073242 62.97216797 C35.17974854 63.75221191 35.60876465 64.53225586 36.05078125 65.3359375 C36.42887939 66.02220215 36.80697754 66.7084668 37.1965332 67.41552734 C38 69 38 69 38 70 C3.28325989 70.07974937 -31.42689731 69.86691488 -66.14196777 69.53643799 C-72.70140111 69.47448605 -79.2608578 69.41510781 -85.8203125 69.35546875 C-98.54689808 69.23940048 -111.27345781 69.12072828 -124 69 C-121.57492743 66.47844079 -119.3004034 64.92653547 -116.1953125 63.28515625 C-115.23069092 62.77033691 -114.26606934 62.25551758 -113.2722168 61.72509766 C-112.23363525 61.17644043 -111.19505371 60.6277832 -110.125 60.0625 C-102.25056394 55.85221922 -94.42259757 51.58639098 -86.6875 47.125 C-78.78774109 42.57651654 -70.84672313 38.10869599 -62.875 33.6875 C-61.74408936 33.06020996 -60.61317871 32.43291992 -59.44799805 31.78662109 C-54.78981289 29.2046274 -50.13030595 26.62503185 -45.46972656 24.04736328 C-41.97890373 22.11655756 -38.48929807 20.18356007 -35 18.25 C-33.32526611 17.3230835 -33.32526611 17.3230835 -31.61669922 16.37744141 C-23.88850359 12.08679105 -16.22205554 7.69963038 -8.64453125 3.14746094 C-3.3236504 0 -3.3236504 0 0 0 Z " fill="#1EA4DD" transform="translate(1374,371)"/>
<path d="M0 0 C4.05734999 2.83232569 6.94199156 6.70348852 8.82421875 11.2734375 C9.73843553 18.00977163 9.59605555 24.02285465 5.41796875 29.58203125 C1.56541448 33.67064889 -1.67729244 35.98327071 -7.37109375 36.64453125 C-13.86027054 36.7701759 -19.96465493 36.65884562 -25.36328125 32.6484375 C-29.49807147 27.23043652 -30.76229974 21.49130856 -30.5234375 14.73046875 C-29.75352658 9.2891882 -27.36476318 5.06671593 -23.30078125 1.3984375 C-15.72998281 -3.74970544 -7.97750373 -4.41975649 0 0 Z " fill="#11395B" transform="translate(1382.17578125,596.7265625)"/>
<path d="M0 0 C3.63467079 1.62400184 4.77408696 2.66113044 7 6 C7.70351326 10.82642815 7.73487541 14.7836545 5.1875 19 C1.51683106 22.35604018 -0.89826229 23.50726996 -5.93359375 23.38671875 C-10.27423012 22.57438794 -12.87275473 19.58839107 -15.375 16.0625 C-16.25688519 13.15227888 -16.36405994 11.03383286 -16 8 C-11.88637587 0.62384639 -8.07090556 -0.93616831 0 0 Z " fill="#1EA2DB" transform="translate(832,282)"/>
<path d="M0 0 C3.07469523 1.70251719 5.40613254 3.81226508 7 7 C7.58438963 11.92556974 7.58569025 14.89544452 4.5625 18.9375 C1.42814255 22.16818522 -1.35813265 23.1080378 -5.81640625 23.2734375 C-10.08371945 22.73906912 -12.78154149 20.55076538 -15.375 17.25 C-16.34165091 13.77005671 -16.68551123 10.536152 -16 7 C-12.14342218 0.33342496 -7.31971451 -1.12988882 0 0 Z " fill="#1EA3DB" transform="translate(1142,739)"/>
<path d="M0 0 C4.65821708 0.0519228 7.25178017 1.18601429 10.8125 4.3125 C13.16492347 7.52035018 13.2809209 10.40899252 12.8125 14.3125 C10.74235496 18.08312132 8.69107167 21.317806 4.8125 23.3125 C0.47917786 23.87422694 -1.64324287 23.61030107 -5.5 21.5 C-8.30096485 19.22014489 -9.97298988 17.64472077 -10.55859375 14.0078125 C-10.73949094 7.00602708 -10.73949094 7.00602708 -7.75 3.25 C-6.904375 2.610625 -6.05875 1.97125 -5.1875 1.3125 C-3.63719882 -0.23780118 -2.15073999 0.06844901 0 0 Z " fill="#1EA2DB" transform="translate(935.1875,426.6875)"/>
<path d="M0 0 C3.70390021 2.02666238 5.65363011 3.48044516 8 7 C8.61414419 11.25912987 8.43727155 14.97241187 6.75 18.9375 C4.43633869 21.66431511 2.35897841 22.7909264 -1.18359375 23.3359375 C-5.18287366 23.40524911 -7.42740621 23.34111971 -10.9375 21.25 C-13.78206465 18.14683856 -14.82909642 16.31026074 -15.375 12.125 C-14.80338506 7.36154216 -12.45951804 4.50984625 -9.1875 1.125 C-5.92236925 -0.5542101 -3.62264505 -0.43721578 0 0 Z " fill="#1EA3DB" transform="translate(1242,706)"/>
<path d="M0 0 C3.70390021 2.02666238 5.65363011 3.48044516 8 7 C8.68343706 10.77688904 8.85107095 14.47186889 6.94921875 17.88671875 C4.62594716 20.71713517 2.71847227 22.79405342 -0.98828125 23.23828125 C-5.05070018 23.36800555 -7.37166461 23.37432746 -10.9375 21.25 C-13.95236344 17.96105806 -14.83016289 16.12517087 -15.5 11.6875 C-14.83398123 6.77561156 -12.58855833 4.29106127 -9 1 C-5.89046621 -0.5547669 -3.43733239 -0.28644437 0 0 Z " fill="#1EA3DB" transform="translate(1375,602)"/>
<path d="M0 0 C3.70390021 2.02666238 5.65363011 3.48044516 8 7 C8.54602034 10.39107371 8.54627924 13.60874176 8 17 C5.80977082 19.82424288 4.16982793 21.41508603 1 23 C-3.50728651 23.54016597 -6.94994123 23.60322525 -10.9375 21.3125 C-14.1938779 17.66140963 -15.05062582 15.41752283 -14.875 10.5 C-12.89483138 2.57932552 -8.01425321 -0.8150088 0 0 Z " fill="#1EA3DB" transform="translate(1035,591)"/>
<path d="M0 0 C3.05357079 1.61320721 5.23833566 3.03060902 7.375 5.75 C8.34165091 9.22994329 8.68551123 12.463848 8 16 C6.2524257 19.02089981 4.16782234 21.41608883 1 23 C-3.57187419 23.54790634 -6.95904603 23.64229075 -10.9375 21.1875 C-14.32148756 17.59842228 -15.55330952 15.13404487 -15.4609375 10.13671875 C-14.61684071 6.22382939 -11.9177214 3.60780798 -9 1 C-5.89046621 -0.5547669 -3.43733239 -0.28644437 0 0 Z " fill="#1EA3DB" transform="translate(993,155)"/>
<path d="M0 0 C2.93423195 1.79646854 4.47205355 2.9441071 6 6 C6.53118252 10.91996928 6.75105553 14.77327597 4.125 19.0625 C0.38219166 22.47506054 -2.61020889 22.33474536 -7.51953125 22.28515625 C-11.03197119 21.88136394 -12.67802118 20.61222617 -15 18 C-17.28853994 14.73065722 -17.47162218 11.9301848 -17 8 C-12.71748112 0.32100063 -8.41357652 -1.12717772 0 0 Z " fill="#1EA3DB" transform="translate(1069,841)"/>
<path d="M0 0 C3.47485838 2.07012839 5.74352278 4.11634312 7 8 C7.51316889 11.93429482 7.17834015 13.67516615 5.25 17.1875 C2.12118208 21.0985224 0.68403869 22.78169869 -4.375 23.4375 C-9.22476105 22.85218401 -12.33887369 21.11416075 -15.375 17.25 C-16.34165091 13.77005671 -16.68551123 10.536152 -16 7 C-12.08620415 0.23451647 -7.36817692 -0.9305829 0 0 Z " fill="#1EA3DB" transform="translate(1010,346)"/>
<path d="M0 0 C4.17489604 0.94850053 7.0456241 2.94431695 9.55859375 6.37109375 C10.86435267 10.81067408 10.67506645 13.56775642 8.49609375 17.68359375 C5.38994694 21.46133986 3.11500363 23.20843696 -1.75390625 23.93359375 C-5.65170713 23.37676505 -7.75630276 21.93026698 -10.81640625 19.49609375 C-13.52373779 15.43509644 -13.69085159 12.26221473 -12.81640625 7.49609375 C-10.03414301 1.68825148 -6.39145599 -0.52813043 0 0 Z " fill="#1EA3DC" transform="translate(882.81640625,633.50390625)"/>
<path d="M0 0 C3.58552881 1.63687185 4.79315055 2.68972583 7 6 C7.66535838 10.06919178 7.92277334 14.22543589 5.984375 17.953125 C2.90831064 21.77040969 0.489247 22.831406 -4.3125 23.375 C-9.20301701 22.87765929 -10.57084492 21.42915508 -14 18 C-15.85726616 14.28546768 -15.58501089 10.04420575 -15 6 C-10.68304603 0.43340146 -6.89762916 -0.75463505 0 0 Z " fill="#1EA3DC" transform="translate(1196,479)"/>
<path d="M0 0 C3.90209164 0.92334746 5.69749115 2.64898086 8.41015625 5.5703125 C10.02445548 8.79891097 10.00586282 12.08024903 9.41015625 15.5703125 C7.6741352 18.59539395 5.57435488 20.98821319 2.41015625 22.5703125 C-1.81782981 23.23949015 -5.86980208 23.67653538 -9.58203125 21.2890625 C-12.36277586 18.36196291 -13.97535604 15.62721918 -14.33984375 11.5703125 C-13.97552375 7.51527246 -12.37552644 4.76950125 -9.56640625 1.8671875 C-6.41565588 -0.20010325 -3.69435179 -0.25632003 0 0 Z " fill="#1EA4DC" transform="translate(1178.58984375,205.4296875)"/>
</svg>
