<svg xmlns="http://www.w3.org/2000/svg"
     viewBox="0 0 4270.0 1000"
     fill="#212529"
     role="img"
     aria-label="Steinsiek">
  <g transform="scale(1, -1) translate(0, -875)">
    <path d="M143 178 145 167 117 154C111 144 106 135 100 125C91 111 84 100 74 86L55 69L40 32L122 -19L149 14L160 46L159 42C162 48 165 56 169 63L209 117L263 183L299 242L297 320L270 340L177 427L161 437L142 464L123 487L153 527L155 534L165 548L222 615L231 633L257 659L284 699L225 746L195 749L171 709C170 706 174 701 172 697L152 684L126 649L128 638L77 579L28 509L29 446L77 399L154 328L174 319L208 278L143 178Z" transform="translate(0.0, 0)"/>
    <path d="M242 734 196 731C182 731 169 731 154 732C146 732 137 725 131 725L112 733L15 738L12 656L24 644L85 646C88 646 94 647 101 649L106 654L128 651L134 610L130 546L136 499L131 295L126 154L135 144L120 81V4L173 -4L201 1L230 17L222 88V276L210 295L211 296L220 356L219 433V450C219 457 218 466 218 474C217 480 217 505 217 514L219 588L215 610L221 652H252L282 650L292 647H337L340 694L334 736L242 734Z" transform="translate(465.0, 0)"/>
    <path d="M319 641 321 697 320 736 221 735 182 727 168 735H111L64 729L69 658L80 645L69 628L70 577L69 499V425L66 388L74 289L70 281L71 227V204L80 192L68 166L67 120L68 109L62 41L67 0L142 -1L150 4H185L242 -2L308 -3L331 7L335 44L337 94L287 95L262 87L182 86L174 88L165 90L163 187L162 189L165 198L159 227L163 330H179L242 328L291 326L293 367L299 397L286 422L235 417L196 415L159 417L157 456L147 464L158 482L163 512V611L165 636V647H174L229 645L245 648L248 649L272 641H319Z" transform="translate(963.0, 0)"/>
    <path d="M83 435 80 380 77 349V162V126L89 109L77 89L63 0L109 -1L130 -2L174 12L175 49L173 68L171 83V360L160 367L169 388L167 413L163 452L166 503L169 634L174 659L179 732L114 736L67 733L72 683L81 678L73 660L76 460L83 435Z" transform="translate(1475.0, 0)"/>
    <path d="M399 88V120L392 339L381 372L389 414L399 660L401 728L360 735L302 734V654L312 640L302 609V523L269 577L261 581L236 621L146 745L67 723V671L71 567L75 510L71 302L80 282L72 253L66 111V94L69 85L62 5L105 -3L164 -1L166 63L163 77L164 181L155 219L160 255L162 483L150 496L149 498L163 534V588L189 552L230 495L259 460L273 438L287 423L303 396L304 292L307 273L304 268L303 172L304 77L303 -1L337 -3L392 -2L405 32L399 88Z" transform="translate(1867.0, 0)"/>
    <path d="M143 178 145 167 117 154C111 144 106 135 100 125C91 111 84 100 74 86L55 69L40 32L122 -19L149 14L160 46L159 42C162 48 165 56 169 63L209 117L263 183L299 242L297 320L270 340L177 427L161 437L142 464L123 487L153 527L155 534L165 548L222 615L231 633L257 659L284 699L225 746L195 749L171 709C170 706 174 701 172 697L152 684L126 649L128 638L77 579L28 509L29 446L77 399L154 328L174 319L208 278L143 178Z" transform="translate(2483.0, 0)"/>
    <path d="M83 435 80 380 77 349V162V126L89 109L77 89L63 0L109 -1L130 -2L174 12L175 49L173 68L171 83V360L160 367L169 388L167 413L163 452L166 503L169 634L174 659L179 732L114 736L67 733L72 683L81 678L73 660L76 460L83 435Z" transform="translate(2948.0, 0)"/>
    <path d="M319 641 321 697 320 736 221 735 182 727 168 735H111L64 729L69 658L80 645L69 628L70 577L69 499V425L66 388L74 289L70 281L71 227V204L80 192L68 166L67 120L68 109L62 41L67 0L142 -1L150 4H185L242 -2L308 -3L331 7L335 44L337 94L287 95L262 87L182 86L174 88L165 90L163 187L162 189L165 198L159 227L163 330H179L242 328L291 326L293 367L299 397L286 422L235 417L196 415L159 417L157 456L147 464L158 482L163 512V611L165 636V647H174L229 645L245 648L248 649L272 641H319Z" transform="translate(3340.0, 0)"/>
    <path d="M59 730 70 659 68 579 73 453 82 399 76 183V177L74 161L86 147L69 107L70 103L67 102L66 -2L119 -3L172 -1L173 50L169 69L168 80L167 129L163 177V341L203 258L202 256L236 201L231 188L284 69L313 -5L338 -6L410 34L381 99L367 102L372 116L338 173L303 250L244 385L239 393L311 530L308 533L311 538L372 639L401 692L370 716L309 740L278 667L282 642L254 614L237 571L197 475L180 448L165 409L162 401V431L160 479L170 727L132 740L59 730Z" transform="translate(3852.0, 0)"/>
  </g>
</svg>
